<?xml version="1.0" encoding="UTF-8" standalone="no"?>
<svg
   xmlns:dc="http://purl.org/dc/elements/1.1/"
   xmlns:cc="http://creativecommons.org/ns#"
   xmlns:rdf="http://www.w3.org/1999/02/22-rdf-syntax-ns#"
   xmlns:svg="http://www.w3.org/2000/svg"
   xmlns="http://www.w3.org/2000/svg"
   xmlns:xlink="http://www.w3.org/1999/xlink"
   xmlns:sodipodi="http://sodipodi.sourceforge.net/DTD/sodipodi-0.dtd"
   xmlns:inkscape="http://www.inkscape.org/namespaces/inkscape"
   width="320"
   height="62.569828"
   viewBox="0 0 256 50.055859"
   version="1.1"
   id="svg3396"
   inkscape:version="0.91 r13725"
   sodipodi:docname="logo-heller-hintergrund.svg"
   inkscape:export-filename="/Users/tim/Desktop/curry-club/pngs/curry-club-ubuntu-rot-rot-abgeschnitten3.png"
   inkscape:export-xdpi="90"
   inkscape:export-ydpi="90">
  <metadata
     id="metadata3416">
    <rdf:RDF>
      <cc:Work
         rdf:about="">
        <dc:format>image/svg+xml</dc:format>
        <dc:type
           rdf:resource="http://purl.org/dc/dcmitype/StillImage" />
        <dc:title></dc:title>
      </cc:Work>
    </rdf:RDF>
  </metadata>
  <sodipodi:namedview
     pagecolor="#ffffff"
     bordercolor="#666666"
     borderopacity="1"
     objecttolerance="10"
     gridtolerance="10"
     guidetolerance="10"
     inkscape:pageopacity="0"
     inkscape:pageshadow="2"
     inkscape:window-width="1335"
     inkscape:window-height="841"
     id="namedview3414"
     showgrid="false"
     inkscape:zoom="1"
     inkscape:cx="157.13926"
     inkscape:cy="74.030916"
     inkscape:window-x="143"
     inkscape:window-y="0"
     inkscape:window-maximized="0"
     inkscape:current-layer="surface0"
     showguides="false"
     units="px"
     fit-margin-top="0"
     fit-margin-left="0"
     fit-margin-right="0"
     fit-margin-bottom="0" />
  <defs
     id="defs3398">
    <linearGradient
       inkscape:collect="always"
       id="linearGradient5404">
      <stop
         style="stop-color:#612fac;stop-opacity:1"
         offset="0"
         id="stop5376" />
      <stop
         style="stop-color:#8f61d3;stop-opacity:1"
         offset="1"
         id="stop5378" />
    </linearGradient>
    <clipPath
       id="clip1">
      <path
         d="m 0,340.15625 481.89062,0 L 481.89062,0 0,0 0,340.15625 Z m 0,0"
         id="path3401"
         inkscape:connector-curvature="0" />
    </clipPath>
    <clipPath
       id="clip1-3">
      <path
         id="path3401-5"
         d="m 0,340.15625 481.89062,0 L 481.89062,0 0,0 0,340.15625 Z m 0,0"
         inkscape:connector-curvature="0" />
    </clipPath>
    <clipPath
       id="clip1-9">
      <path
         id="path3401-2"
         d="m 0,340.15625 481.89062,0 L 481.89062,0 0,0 0,340.15625 Z m 0,0"
         inkscape:connector-curvature="0" />
    </clipPath>
    <linearGradient
       inkscape:collect="always"
       xlink:href="#linearGradient5404"
       id="linearGradient5380"
       x1="144.78511"
       y1="152.15529"
       x2="163.25426"
       y2="130.09357"
       gradientUnits="userSpaceOnUse"
       gradientTransform="matrix(1.1718361,0,0,1.1718361,-9.4635844,-17.212967)" />
    <clipPath
       id="clip1-97">
      <path
         id="path3401-25"
         d="m 0,340.15625 481.89062,0 L 481.89062,0 0,0 0,340.15625 Z m 0,0"
         inkscape:connector-curvature="0" />
    </clipPath>
    <clipPath
       id="clip1-3-8">
      <path
         d="m 0,340.15625 481.89062,0 L 481.89062,0 0,0 0,340.15625 Z m 0,0"
         id="path3401-5-7"
         inkscape:connector-curvature="0" />
    </clipPath>
    <clipPath
       id="clip1-9-7">
      <path
         d="m 0,340.15625 481.89062,0 L 481.89062,0 0,0 0,340.15625 Z m 0,0"
         id="path3401-2-7"
         inkscape:connector-curvature="0" />
    </clipPath>
    <linearGradient
       gradientTransform="matrix(1.1718361,0,0,1.1718361,-9.4635844,-17.212967)"
       gradientUnits="userSpaceOnUse"
       y2="130.09357"
       x2="163.25426"
       y1="152.15529"
       x1="144.78511"
       id="linearGradient6285"
       xlink:href="#linearGradient5404"
       inkscape:collect="always" />
    <clipPath
       id="clip1-1">
      <path
         id="path3401-55"
         d="m 0,340.15625 481.89062,0 L 481.89062,0 0,0 0,340.15625 Z m 0,0"
         inkscape:connector-curvature="0" />
    </clipPath>
    <clipPath
       id="clip1-3-9">
      <path
         d="m 0,340.15625 481.89062,0 L 481.89062,0 0,0 0,340.15625 Z m 0,0"
         id="path3401-5-6"
         inkscape:connector-curvature="0" />
    </clipPath>
    <clipPath
       id="clip1-9-9">
      <path
         d="m 0,340.15625 481.89062,0 L 481.89062,0 0,0 0,340.15625 Z m 0,0"
         id="path3401-2-0"
         inkscape:connector-curvature="0" />
    </clipPath>
    <linearGradient
       gradientTransform="matrix(1.1718361,0,0,1.1718361,-9.4635844,-17.212967)"
       gradientUnits="userSpaceOnUse"
       y2="130.09357"
       x2="163.25426"
       y1="152.15529"
       x1="144.78511"
       id="linearGradient6744"
       xlink:href="#linearGradient5404"
       inkscape:collect="always" />
    <clipPath
       id="clip1-97-1">
      <path
         d="m 0,340.15625 481.89062,0 L 481.89062,0 0,0 0,340.15625 Z m 0,0"
         id="path3401-25-4"
         inkscape:connector-curvature="0" />
    </clipPath>
    <clipPath
       id="clip1-3-8-3">
      <path
         id="path3401-5-7-9"
         d="m 0,340.15625 481.89062,0 L 481.89062,0 0,0 0,340.15625 Z m 0,0"
         inkscape:connector-curvature="0" />
    </clipPath>
    <clipPath
       id="clip1-9-7-4">
      <path
         id="path3401-2-7-8"
         d="m 0,340.15625 481.89062,0 L 481.89062,0 0,0 0,340.15625 Z m 0,0"
         inkscape:connector-curvature="0" />
    </clipPath>
    <linearGradient
       inkscape:collect="always"
       xlink:href="#linearGradient5404"
       id="linearGradient6752"
       x1="144.78511"
       y1="152.15529"
       x2="163.25426"
       y2="130.09357"
       gradientUnits="userSpaceOnUse"
       gradientTransform="matrix(1.1718361,0,0,1.1718361,-9.4635844,-17.212967)" />
    <linearGradient
       y2="130.09357"
       x2="163.25426"
       y1="152.15529"
       x1="144.78511"
       gradientTransform="matrix(1.1718361,0,0,1.1718361,9.5257836,-64.546578)"
       gradientUnits="userSpaceOnUse"
       id="linearGradient6754"
       xlink:href="#linearGradient5404"
       inkscape:collect="always" />
  </defs>
  <g
     id="surface0"
     style="fill:#800000"
     transform="translate(-70.861128,-215.66197)">
    <g
       id="g4138"
       transform="matrix(1.0437322,0,0,1.0437322,-3.0989096,-11.620412)">
      <g
         transform="translate(-6.610632,97.6)"
         id="g6155">
        <path
           inkscape:connector-curvature="0"
           id="path3406-6"
           d="m 145.6903,130.59019 10.28079,15.42101 -10.28079,15.421 7.71051,0 10.28077,-15.421 -10.28077,-15.42101 -7.71051,0 z m 0,0"
           style="clip-rule:nonzero;fill:#6c46a3;fill-opacity:1;fill-rule:nonzero;stroke:none" />
        <path
           inkscape:connector-curvature="0"
           id="path3408"
           d="m 155.56059,130.42061 10.28079,15.42101 -10.28079,15.42099 7.7105,0 20.56122,-30.842 -7.71051,0 -6.42517,9.63796 -6.42554,-9.63796 -7.7105,0 z m 0,0"
           style="clip-rule:nonzero;opacity:0.847;fill:url(#linearGradient5380);fill-opacity:1;fill-rule:nonzero;stroke:none" />
        <path
           style="fill:#9226ac;fill-opacity:1;stroke:none;stroke-width:0.60558933"
           d="m 173.61156,149.66344 c -0.91788,1.37594 -1.66886,2.51839 -1.66886,2.53877 0,0.0203 3.81902,0.0371 8.48672,0.0371 l 8.48673,0 0,-2.53877 0,-2.53878 -6.81789,0 -6.81787,0 -1.66883,2.50173 z"
           id="path3426"
           inkscape:connector-curvature="0" />
        <path
           style="fill:#82229a;fill-opacity:1;stroke:none;stroke-width:0.60558933"
           d="m 178.8699,141.76779 c -0.83779,1.26014 -1.58358,2.38543 -1.65733,2.50064 l -0.13406,0.20947 5.91881,0 5.91883,0 0,-2.50251 0,-2.50248 -4.26149,0.002 -4.26151,0.002 -1.52325,2.2912 z"
           id="path3428"
           inkscape:connector-curvature="0" />
      </g>
      <g
         id="text3340"
         style="font-style:normal;font-variant:normal;font-weight:500;font-stretch:normal;font-size:41.50957108px;line-height:125%;font-family:Ubuntu;-inkscape-font-specification:'Ubuntu Medium';letter-spacing:-0.74997509px;word-spacing:0px;fill:#2d1630;fill-opacity:1;stroke:none;stroke-width:1px;stroke-linecap:butt;stroke-linejoin:miter;stroke-opacity:1">
        <path
           id="path4069"
           style="font-style:normal;font-variant:normal;font-weight:500;font-stretch:normal;font-family:Ubuntu;-inkscape-font-specification:'Ubuntu Medium';letter-spacing:-0.74997509px;fill:#2d1630;fill-opacity:1"
           d="m 84.725321,250.8547 q -3.237746,0 -5.81134,-0.99623 -2.573593,-0.99623 -4.358505,-2.90567 -1.784911,-1.95095 -2.739631,-4.73209 -0.95472,-2.78114 -0.95472,-6.39248 0,-3.61133 1.079248,-6.39247 1.120759,-2.78114 3.030199,-4.69058 1.90944,-1.95095 4.483034,-2.94718 2.573593,-0.99623 5.520773,-0.99623 1.784911,0 3.237746,0.29057 1.452835,0.24905 2.532084,0.58113 1.079249,0.33208 1.784912,0.70566 0.705662,0.37359 0.996229,0.53963 l -1.535854,4.27548 q -0.996229,-0.62264 -2.86416,-1.16226 -1.826421,-0.58114 -3.984919,-0.58114 -1.867931,0 -3.486804,0.66415 -1.618873,0.62265 -2.822651,1.90945 -1.162268,1.28679 -1.826421,3.23774 -0.664153,1.95095 -0.664153,4.52454 0,2.28303 0.498115,4.19247 0.539624,1.90944 1.618873,3.32077 1.079249,1.36981 2.739632,2.15849 1.660383,0.74718 3.984919,0.74718 2.781141,0 4.524543,-0.53963 1.743402,-0.58113 2.698122,-1.07925 l 1.411325,4.27549 q -0.498114,0.33208 -1.369815,0.66415 -0.830192,0.33208 -1.99246,0.66416 -1.162268,0.29056 -2.615103,0.4566 -1.452835,0.20755 -3.113218,0.20755 z"
           inkscape:connector-curvature="0" />
        <path
           id="path4071"
           style="font-style:normal;font-variant:normal;font-weight:500;font-stretch:normal;font-family:Ubuntu;-inkscape-font-specification:'Ubuntu Medium';letter-spacing:-0.74997509px;fill:#2d1630;fill-opacity:1"
           d="m 114.53028,249.5679 q -1.45283,0.37359 -3.77737,0.74717 -2.32453,0.4151 -5.10568,0.4151 -2.6151,0 -4.40001,-0.74717 -1.743402,-0.74717 -2.822651,-2.07548 -1.037739,-1.32831 -1.494345,-3.15473 -0.456605,-1.86793 -0.456605,-4.06794 l 0,-12.1623 5.022661,0 0,11.37362 q 0,3.48681 0.99623,4.98115 1.03774,1.49435 3.56982,1.49435 0.91321,0 1.90944,-0.083 1.03774,-0.083 1.53585,-0.20755 l 0,-17.55855 5.02266,0 0,21.04535 z"
           inkscape:connector-curvature="0" />
        <path
           id="path4073"
           style="font-style:normal;font-variant:normal;font-weight:500;font-stretch:normal;font-family:Ubuntu;-inkscape-font-specification:'Ubuntu Medium';letter-spacing:-0.74997509px;fill:#2d1630;fill-opacity:1"
           d="m 130.15875,233.04709 q -0.62265,-0.20754 -1.7434,-0.41509 -1.07925,-0.24906 -2.53209,-0.24906 -0.83019,0 -1.78491,0.16604 -0.91321,0.16604 -1.2868,0.29057 l 0,17.39251 -5.02265,0 0,-20.67177 q 1.45283,-0.53963 3.61133,-0.99623 2.20001,-0.49812 4.85662,-0.49812 0.49811,0 1.16227,0.083 0.66415,0.0415 1.3283,0.16604 0.66416,0.083 1.2868,0.24906 0.62264,0.12453 0.99623,0.24906 l -0.8717,4.23397 z"
           inkscape:connector-curvature="0" />
        <path
           id="path4075"
           style="font-style:normal;font-variant:normal;font-weight:500;font-stretch:normal;font-family:Ubuntu;-inkscape-font-specification:'Ubuntu Medium';letter-spacing:-0.74997509px;fill:#2d1630;fill-opacity:1"
           d="m 146.10989,233.04709 q -0.62264,-0.20754 -1.7434,-0.41509 -1.07925,-0.24906 -2.53208,-0.24906 -0.83019,0 -1.78491,0.16604 -0.91321,0.16604 -1.2868,0.29057 l 0,17.39251 -5.02266,0 0,-20.67177 q 1.45284,-0.53963 3.61133,-0.99623 2.20001,-0.49812 4.85662,-0.49812 0.49812,0 1.16227,0.083 0.66415,0.0415 1.32831,0.16604 0.66415,0.083 1.28679,0.24906 0.62265,0.12453 0.99623,0.24906 l -0.8717,4.23397 z"
           inkscape:connector-curvature="0" />
        <path
           id="path4077"
           style="font-style:normal;font-variant:normal;font-weight:500;font-stretch:normal;font-family:Ubuntu;-inkscape-font-specification:'Ubuntu Medium';letter-spacing:-0.74997509px;fill:#2d1630;fill-opacity:1"
           d="m 202.52663,250.8547 q -3.23775,0 -5.81134,-0.99623 -2.57359,-0.99623 -4.35851,-2.90567 -1.78491,-1.95095 -2.73963,-4.73209 -0.95472,-2.78114 -0.95472,-6.39248 0,-3.61133 1.07925,-6.39247 1.12076,-2.78114 3.0302,-4.69058 1.90944,-1.95095 4.48303,-2.94718 2.5736,-0.99623 5.52078,-0.99623 1.78491,0 3.23774,0.29057 1.45284,0.24905 2.53209,0.58113 1.07925,0.33208 1.78491,0.70566 0.70566,0.37359 0.99623,0.53963 l -1.53586,4.27548 q -0.99623,-0.62264 -2.86416,-1.16226 -1.82642,-0.58114 -3.98492,-0.58114 -1.86793,0 -3.4868,0.66415 -1.61887,0.62265 -2.82265,1.90945 -1.16227,1.28679 -1.82642,3.23774 -0.66415,1.95095 -0.66415,4.52454 0,2.28303 0.49811,4.19247 0.53962,1.90944 1.61887,3.32077 1.07925,1.36981 2.73964,2.15849 1.66038,0.74718 3.98491,0.74718 2.78115,0 4.52455,-0.53963 1.7434,-0.58113 2.69812,-1.07925 l 1.41133,4.27549 q -0.49812,0.33208 -1.36982,0.66415 -0.83019,0.33208 -1.99246,0.66416 -1.16227,0.29056 -2.6151,0.4566 -1.45284,0.20755 -3.11322,0.20755 z"
           inkscape:connector-curvature="0" />
        <path
           id="path4079"
           style="font-style:normal;font-variant:normal;font-weight:500;font-stretch:normal;font-family:Ubuntu;-inkscape-font-specification:'Ubuntu Medium';letter-spacing:-0.74997509px;fill:#2d1630;fill-opacity:1"
           d="m 222.51542,250.64715 q -2.24152,-0.0415 -3.73586,-0.49811 -1.45284,-0.45661 -2.32454,-1.2868 -0.8717,-0.8717 -1.24528,-2.11699 -0.33208,-1.2868 -0.33208,-2.90567 l 0,-24.98876 5.02266,-0.83019 0,24.86423 q 0,0.91321 0.12453,1.53586 0.16604,0.62264 0.53962,1.07924 0.37359,0.4151 0.99623,0.66416 0.66415,0.20755 1.66038,0.33207 l -0.70566,4.15096 z"
           inkscape:connector-curvature="0" />
        <path
           id="path4081"
           style="font-style:normal;font-variant:normal;font-weight:500;font-stretch:normal;font-family:Ubuntu;-inkscape-font-specification:'Ubuntu Medium';letter-spacing:-0.74997509px;fill:#2d1630;fill-opacity:1"
           d="m 243.16964,249.5679 q -1.45284,0.37359 -3.77737,0.74717 -2.32454,0.4151 -5.10568,0.4151 -2.6151,0 -4.40002,-0.74717 -1.7434,-0.74717 -2.82265,-2.07548 -1.03774,-1.32831 -1.49434,-3.15473 -0.45661,-1.86793 -0.45661,-4.06794 l 0,-12.1623 5.02266,0 0,11.37362 q 0,3.48681 0.99623,4.98115 1.03774,1.49435 3.56982,1.49435 0.91322,0 1.90945,-0.083 1.03773,-0.083 1.53585,-0.20755 l 0,-17.55855 5.02266,0 0,21.04535 z"
           inkscape:connector-curvature="0" />
        <path
           id="path4083"
           style="font-style:normal;font-variant:normal;font-weight:500;font-stretch:normal;font-family:Ubuntu;-inkscape-font-specification:'Ubuntu Medium';letter-spacing:-0.74997509px;fill:#2d1630;fill-opacity:1"
           d="m 261.41798,239.31504 q 0,-3.19624 -1.28679,-5.06417 -1.24529,-1.86793 -3.98492,-1.86793 -1.24529,0 -2.36605,0.37359 -1.07925,0.37358 -1.7434,0.83019 l 0,12.49438 q 0.53962,0.12453 1.36982,0.24906 0.8717,0.083 2.07547,0.083 2.78115,0 4.35851,-1.86794 1.57736,-1.90944 1.57736,-5.2302 z m 5.14719,0.083 q 0,2.6151 -0.78868,4.73209 -0.74717,2.07548 -2.20001,3.56982 -1.41133,1.49435 -3.44529,2.28303 -2.03397,0.78868 -4.60757,0.78868 -2.49057,0 -4.7736,-0.37359 -2.24151,-0.37358 -3.73586,-0.83019 l 0,-30.71708 5.02266,-0.83019 0,11.24909 q 0.8717,-0.4566 2.11699,-0.83019 1.28679,-0.37359 2.82265,-0.37359 2.28302,0 4.06794,0.8302 1.82642,0.78868 3.0302,2.28302 1.20377,1.49435 1.82642,3.61134 0.66415,2.07547 0.66415,4.60756 z"
           inkscape:connector-curvature="0" />
      </g>
      <g
         id="text4418"
         style="font-style:normal;font-variant:normal;font-weight:normal;font-stretch:normal;font-size:21.91609192px;line-height:125%;font-family:'Ubuntu Condensed';-inkscape-font-specification:'Ubuntu Condensed, ';letter-spacing:0px;word-spacing:0px;fill:#2d1630;fill-opacity:1;stroke:none;stroke-width:1px;stroke-linecap:butt;stroke-linejoin:miter;stroke-opacity:1">
        <path
           id="path4086"
           style="font-style:normal;font-variant:normal;font-weight:normal;font-stretch:normal;font-family:'Ubuntu Condensed';-inkscape-font-specification:'Ubuntu Condensed, ';fill:#2d1630;fill-opacity:1"
           d="m 280.37377,218.10994 q 0.52599,1.64371 1.03006,3.33124 0.52598,1.66563 1.00814,3.50658 0.50407,1.84095 0.98622,3.90106 0.50407,2.06012 1.00814,4.44897 l -1.97245,0 q -0.17533,-0.98622 -0.37257,-1.95053 -0.17533,-0.96431 -0.37258,-1.92862 l -4.7777,0 q -0.21916,0.96431 -0.39449,1.92862 -0.17533,0.96431 -0.35066,1.95053 l -1.9067,0 q 0.48215,-2.38885 0.98622,-4.44897 0.50407,-2.06011 0.98623,-3.90106 0.50407,-1.84095 1.00814,-3.50658 0.52598,-1.68753 1.05197,-3.33124 l 2.08203,0 z m -1.07389,2.23544 q -0.5479,1.81904 -1.05197,3.65999 -0.50407,1.84095 -0.96431,3.76957 l 4.01065,0 q -0.43833,-1.92862 -0.9424,-3.76957 -0.50407,-1.84095 -1.05197,-3.65999 z"
           inkscape:connector-curvature="0" />
        <path
           id="path4088"
           style="font-style:normal;font-variant:normal;font-weight:normal;font-stretch:normal;font-family:'Ubuntu Condensed';-inkscape-font-specification:'Ubuntu Condensed, ';fill:#2d1630;fill-opacity:1"
           d="m 290.59132,233.62653 q -2.12586,0 -3.19975,-1.20538 -1.05197,-1.20539 -1.05197,-3.8134 l 0,-10.49781 1.97245,0 0,10.32248 q 0,1.73137 0.50407,2.60801 0.50407,0.85473 1.81904,0.85473 1.35879,0 1.84095,-0.87664 0.50407,-0.89856 0.50407,-2.5861 l 0,-10.32248 1.97245,0 0,10.49781 q 0,2.56418 -1.09581,3.79148 -1.0958,1.2273 -3.2655,1.2273 z"
           inkscape:connector-curvature="0" />
        <path
           id="path4090"
           style="font-style:normal;font-variant:normal;font-weight:normal;font-stretch:normal;font-family:'Ubuntu Condensed';-inkscape-font-specification:'Ubuntu Condensed, ';fill:#2d1630;fill-opacity:1"
           d="m 297.27778,225.69291 q 0,-2.14778 0.39449,-3.65999 0.39449,-1.51221 1.11772,-2.4546 0.74515,-0.96431 1.7752,-1.38072 1.05198,-0.43832 2.34503,-0.43832 0.98622,0 1.79712,0.28491 0.81089,0.26299 1.31496,0.61365 l -0.61365,1.64371 q -0.50407,-0.35066 -1.0958,-0.56982 -0.59174,-0.24108 -1.3588,-0.24108 -1.9067,0 -2.73951,1.55605 -0.83281,1.53412 -0.83281,4.64621 0,1.66562 0.24107,2.84909 0.263,1.18347 0.72323,1.92861 0.46024,0.74515 1.11772,1.09581 0.65749,0.35066 1.46838,0.35066 0.6794,0 1.16155,-0.15342 l 0,-5.93926 1.97245,0 0,7.14465 q -0.59173,0.28491 -1.46837,0.48215 -0.87665,0.19725 -1.84096,0.19725 -1.18347,0 -2.19161,-0.46024 -1.00814,-0.48215 -1.75328,-1.44646 -0.72323,-0.98623 -1.13964,-2.47652 -0.39449,-1.51221 -0.39449,-3.57232 z"
           inkscape:connector-curvature="0" />
        <path
           id="path4092"
           style="font-style:normal;font-variant:normal;font-weight:normal;font-stretch:normal;font-family:'Ubuntu Condensed';-inkscape-font-specification:'Ubuntu Condensed, ';fill:#2d1630;fill-opacity:1"
           d="m 311.32843,231.93899 q 1.18347,0 1.81903,-0.65748 0.65749,-0.65748 0.65749,-1.7752 0,-0.59174 -0.19725,-1.05198 -0.19724,-0.46023 -0.52599,-0.83281 -0.30682,-0.37257 -0.72323,-0.6794 -0.4164,-0.30682 -0.85472,-0.61365 -0.50407,-0.35065 -1.05198,-0.74514 -0.5479,-0.39449 -1.00814,-0.92048 -0.43832,-0.52599 -0.72323,-1.2273 -0.28491,-0.70132 -0.28491,-1.64371 0,-0.92047 0.30683,-1.66562 0.32874,-0.74515 0.87664,-1.27113 0.56982,-0.52599 1.33688,-0.8109 0.78898,-0.28491 1.68754,-0.28491 0.87665,0 1.62179,0.21916 0.74515,0.21916 1.24922,0.52599 l -0.61365,1.55604 q -0.46024,-0.30682 -1.00814,-0.46024 -0.52599,-0.17533 -1.11772,-0.17533 -1.07389,0 -1.73137,0.59174 -0.63557,0.56982 -0.63557,1.68754 0,0.61365 0.19725,1.07389 0.21916,0.46023 0.5479,0.83281 0.35066,0.37257 0.78898,0.6794 0.46024,0.30682 0.96431,0.63556 0.50407,0.32874 1.03005,0.72323 0.52599,0.39449 0.94239,0.92048 0.43833,0.50407 0.70132,1.20539 0.28491,0.67939 0.28491,1.62179 0,0.85472 -0.26299,1.62179 -0.263,0.76706 -0.83282,1.35879 -0.5479,0.56982 -1.40263,0.92048 -0.83281,0.32874 -1.97244,0.32874 -1.05198,0 -1.84096,-0.24108 -0.78898,-0.24107 -1.40263,-0.63556 l 0.61365,-1.57796 q 0.56982,0.35066 1.16156,0.56982 0.61365,0.19724 1.40263,0.19724 z"
           inkscape:connector-curvature="0" />
      </g>
      <g
         id="text4426"
         style="font-style:normal;font-variant:normal;font-weight:normal;font-stretch:normal;font-size:21.91609192px;line-height:125%;font-family:'Ubuntu Condensed';-inkscape-font-specification:'Ubuntu Condensed, ';letter-spacing:0px;word-spacing:0px;fill:#2d1630;fill-opacity:1;stroke:none;stroke-width:1px;stroke-linecap:butt;stroke-linejoin:miter;stroke-opacity:1">
        <path
           id="path4095"
           d="m 276.53087,241.62189 1.3588,0 q 2.71759,0 2.71759,-2.4546 0,-0.76706 -0.24108,-1.24922 -0.21916,-0.50407 -0.59173,-0.76706 -0.37257,-0.28491 -0.87664,-0.39449 -0.48216,-0.10958 -1.03006,-0.10958 -0.32874,0 -0.6794,0.0219 -0.32874,0.0219 -0.65748,0.0657 l 0,4.88729 z m 0,1.57796 0,5.47902 q 0.4164,0.0658 0.81089,0.10959 0.41641,0.0438 0.8109,0.0438 0.61365,0 1.16155,-0.1315 0.5479,-0.1315 0.94239,-0.43832 0.41641,-0.30683 0.63557,-0.83281 0.24108,-0.5479 0.24108,-1.33688 0,-1.3588 -0.74515,-2.12587 -0.72323,-0.76706 -2.27927,-0.76706 l -1.57796,0 z m -1.97245,-7.82404 q 0.76706,-0.17533 1.55604,-0.263 0.8109,-0.10958 1.59988,-0.10958 0.98622,0 1.86287,0.19725 0.89855,0.17533 1.57795,0.63556 0.6794,0.43833 1.07389,1.18347 0.41641,0.72323 0.41641,1.81904 0,1.3588 -0.56982,2.23544 -0.56982,0.85473 -1.46838,1.27113 1.11772,0.43833 1.84095,1.33689 0.72323,0.89856 0.72323,2.47651 0,1.18347 -0.39449,1.99437 -0.37257,0.81089 -1.07388,1.33688 -0.70132,0.50407 -1.68754,0.74515 -0.96431,0.21916 -2.12586,0.21916 -0.76707,0 -1.59988,-0.0877 -0.83281,-0.0877 -1.73137,-0.26299 l 0,-14.72761 z"
           inkscape:connector-curvature="0" />
        <path
           id="path4097"
           d="m 290.24817,250.67324 q -2.12587,0 -3.19975,-1.20539 -1.05198,-1.20538 -1.05198,-3.8134 l 0,-10.4978 1.97245,0 0,10.32248 q 0,1.73137 0.50407,2.60801 0.50407,0.85473 1.81904,0.85473 1.3588,0 1.84095,-0.87665 0.50407,-0.89856 0.50407,-2.58609 l 0,-10.32248 1.97245,0 0,10.4978 q 0,2.56419 -1.09581,3.79149 -1.0958,1.2273 -3.26549,1.2273 z"
           inkscape:connector-curvature="0" />
        <path
           id="path4099"
           d="m 297.57019,235.37581 q 1.53413,-0.37258 2.95867,-0.37258 1.13964,0 2.06012,0.263 0.92047,0.26299 1.57795,0.83281 0.65749,0.56982 1.00814,1.46838 0.37258,0.89856 0.37258,2.16969 0,1.57796 -0.61365,2.56418 -0.59174,0.96431 -1.62179,1.46838 0.26299,0.43832 0.65748,1.20539 0.4164,0.74514 0.83281,1.66562 0.43832,0.89856 0.83281,1.86287 0.41641,0.9643 0.70132,1.84095 l -1.97245,0 q -0.24108,-0.65749 -0.61365,-1.4903 -0.35066,-0.83281 -0.74515,-1.6437 -0.39449,-0.83281 -0.78898,-1.57796 -0.39449,-0.76707 -0.70131,-1.29305 -0.35066,0.0438 -0.72323,0.0657 -0.37258,0.0219 -0.74515,0.0219 l -0.5479,0 0,5.91735 -1.92862,0 0,-14.96869 z m 1.92862,7.42955 0.83281,0 q 1.51221,0 2.3231,-0.6794 0.8109,-0.70131 0.8109,-2.38885 0,-0.85473 -0.21916,-1.42455 -0.19725,-0.59173 -0.59174,-0.92047 -0.37257,-0.35066 -0.92047,-0.50407 -0.52599,-0.15342 -1.18347,-0.15342 -0.56982,0 -1.05197,0.0658 l 0,6.00501 z"
           inkscape:connector-curvature="0" />
        <path
           id="path4101"
           d="m 307.06327,242.73961 q 0,-2.14777 0.39449,-3.65998 0.39449,-1.51221 1.11772,-2.45461 0.74515,-0.9643 1.77521,-1.38071 1.05197,-0.43832 2.34502,-0.43832 0.98622,0 1.79712,0.28491 0.81089,0.26299 1.31496,0.61365 l -0.61365,1.64371 q -0.50407,-0.35066 -1.0958,-0.56982 -0.59174,-0.24108 -1.3588,-0.24108 -1.9067,0 -2.73951,1.55604 -0.83281,1.53413 -0.83281,4.64621 0,1.66563 0.24107,2.8491 0.263,1.18346 0.72324,1.92861 0.46023,0.74515 1.11772,1.09581 0.65748,0.35065 1.46837,0.35065 0.6794,0 1.16156,-0.15341 l 0,-5.93926 1.97245,0 0,7.14465 q -0.59174,0.28491 -1.46838,0.48215 -0.87665,0.19725 -1.84095,0.19725 -1.18347,0 -2.19161,-0.46024 -1.00814,-0.48216 -1.75329,-1.44646 -0.72323,-0.98623 -1.13964,-2.47652 -0.39449,-1.51221 -0.39449,-3.57233 z"
           inkscape:connector-curvature="0" />
      </g>
      <g
         id="text5425"
         style="font-style:normal;font-variant:normal;font-weight:normal;font-stretch:normal;font-size:11.0300684px;line-height:125%;font-family:'Ubuntu Mono';-inkscape-font-specification:'Ubuntu Mono';letter-spacing:0px;word-spacing:0px;fill:#72387b;fill-opacity:1;stroke:none;stroke-width:1px;stroke-linecap:butt;stroke-linejoin:miter;stroke-opacity:1">
        <path
           id="path4104"
           d="m 171.02314,263.16987 q 0,0.3309 -0.2206,0.58459 -0.2206,0.25369 -0.58459,0.25369 -0.37502,0 -0.59562,-0.25369 -0.22061,-0.25369 -0.22061,-0.58459 0,-0.34193 0.22061,-0.59562 0.2206,-0.2537 0.59562,-0.2537 0.36399,0 0.58459,0.2537 0.2206,0.25369 0.2206,0.59562 z m 0,-3.56271 q 0,0.3309 -0.2206,0.58459 -0.2206,0.25369 -0.58459,0.25369 -0.37502,0 -0.59562,-0.25369 -0.22061,-0.25369 -0.22061,-0.58459 0,-0.34194 0.22061,-0.59563 0.2206,-0.25369 0.59562,-0.25369 0.36399,0 0.58459,0.25369 0.2206,0.25369 0.2206,0.59563 z"
           inkscape:connector-curvature="0" />
        <path
           id="path4106"
           d="m 176.53818,263.16987 q 0,0.3309 -0.2206,0.58459 -0.2206,0.25369 -0.5846,0.25369 -0.37502,0 -0.59562,-0.25369 -0.2206,-0.25369 -0.2206,-0.58459 0,-0.34193 0.2206,-0.59562 0.2206,-0.2537 0.59562,-0.2537 0.364,0 0.5846,0.2537 0.2206,0.25369 0.2206,0.59562 z m 0,-3.56271 q 0,0.3309 -0.2206,0.58459 -0.2206,0.25369 -0.5846,0.25369 -0.37502,0 -0.59562,-0.25369 -0.2206,-0.25369 -0.2206,-0.58459 0,-0.34194 0.2206,-0.59563 0.2206,-0.25369 0.59562,-0.25369 0.364,0 0.5846,0.25369 0.2206,0.25369 0.2206,0.59563 z"
           inkscape:connector-curvature="0" />
        <path
           id="path4108"
           d="m 188.23005,256.80552 q -1.0258,0.79416 -1.56627,1.83099 -0.54047,1.03683 -0.54047,2.26116 0,0.61769 0.12133,1.16919 0.13236,0.55151 0.38605,1.05889 0.26472,0.50738 0.66181,0.98167 0.40811,0.4743 0.95961,0.94859 l -0.49635,0.6618 q -1.26846,-0.93755 -1.89717,-2.17292 -0.61769,-1.2464 -0.61769,-2.62515 0,-1.36773 0.62872,-2.61413 0.62871,-1.2464 1.88614,-2.16189 l 0.48532,0.6618 -0.011,0 z"
           inkscape:connector-curvature="0" />
        <path
           id="path4110"
           d="m 193.74508,256.80552 q -1.02579,0.79416 -1.56626,1.83099 -0.54048,1.03683 -0.54048,2.26116 0,0.61769 0.12133,1.16919 0.13236,0.55151 0.38605,1.05889 0.26473,0.50738 0.66181,0.98167 0.40811,0.4743 0.95962,0.94859 l -0.49636,0.6618 q -1.26846,-0.93755 -1.89717,-2.17292 -0.61768,-1.2464 -0.61768,-2.62515 0,-1.36773 0.62871,-2.61413 0.62871,-1.2464 1.88614,-2.16189 l 0.48532,0.6618 -0.011,0 z"
           inkscape:connector-curvature="0" />
        <path
           id="path4112"
           d="m 197.83724,263.22502 q 0.34193,0 0.60665,-0.0221 0.27576,-0.0221 0.45224,-0.0552 l 0,-1.52215 q -0.17648,-0.0551 -0.43018,-0.0882 -0.24266,-0.0331 -0.51841,-0.0331 -0.25369,0 -0.49635,0.0441 -0.24266,0.0331 -0.43018,0.13236 -0.18751,0.0993 -0.30884,0.26472 -0.12133,0.15442 -0.12133,0.39708 0,0.49636 0.3309,0.6949 0.34194,0.18751 0.9155,0.18751 z m -0.0882,-4.58851 q 0.57356,0 0.95962,0.14339 0.39708,0.14339 0.63974,0.39708 0.24266,0.2537 0.34193,0.61769 0.0993,0.36399 0.0993,0.79416 l 0,3.19872 q -0.31987,0.0551 -0.84931,0.13236 -0.51842,0.0772 -1.06992,0.0772 -0.41914,0 -0.81623,-0.0772 -0.39708,-0.0662 -0.70592,-0.24266 -0.30884,-0.18751 -0.49635,-0.50738 -0.18751,-0.31987 -0.18751,-0.81623 0,-0.4412 0.18751,-0.73901 0.19854,-0.30884 0.49635,-0.49635 0.30884,-0.18751 0.69489,-0.26473 0.39709,-0.0882 0.79417,-0.0882 0.54047,0 1.05889,0.12133 l 0,-0.25369 q 0,-0.23163 -0.0551,-0.4412 -0.0441,-0.2206 -0.18752,-0.39708 -0.13236,-0.17648 -0.37502,-0.27575 -0.23163,-0.1103 -0.60665,-0.1103 -0.47429,0 -0.82726,0.0662 -0.35296,0.0662 -0.54047,0.13236 l -0.1103,-0.75005 q 0.18751,-0.0882 0.61768,-0.15442 0.44121,-0.0662 0.93756,-0.0662 z"
           inkscape:connector-curvature="0" />
        <path
           id="path4114"
           d="m 202.18309,264.74717 q 0.19854,-0.0441 0.38605,-0.0882 0.19854,-0.0441 0.36399,-0.13236 0.16545,-0.0772 0.29781,-0.20957 0.13237,-0.12133 0.20958,-0.34194 -0.35297,-0.0331 -0.51842,-0.26472 -0.15442,-0.24266 -0.15442,-0.47429 0,-0.4412 0.24266,-0.6618 0.25369,-0.23164 0.57357,-0.23164 0.40811,0 0.61768,0.29782 0.20957,0.28678 0.20957,0.70592 0,0.31987 -0.13236,0.6618 -0.12133,0.35297 -0.38605,0.65078 -0.25369,0.30884 -0.63975,0.51841 -0.38605,0.2206 -0.91549,0.28678 l -0.15442,-0.71695 z"
           inkscape:connector-curvature="0" />
        <path
           id="path4116"
           d="m 213.9579,263.7324 q -0.29781,0.0772 -0.79416,0.16545 -0.48533,0.0882 -1.14713,0.0882 -0.58459,0 -0.97065,-0.16545 -0.38605,-0.17648 -0.62871,-0.48532 -0.24266,-0.31987 -0.34193,-0.75004 -0.0993,-0.43018 -0.0993,-0.94859 l 0,-2.87885 0.90446,0 0,2.68031 q 0,0.94858 0.27575,1.34567 0.28679,0.39708 0.94859,0.39708 0.14339,0 0.28678,-0.011 0.15442,-0.011 0.28678,-0.0221 0.13236,-0.0221 0.23163,-0.0331 0.0993,-0.0221 0.13237,-0.0331 l 0,-4.32379 0.91549,0 0,4.97456 z"
           inkscape:connector-curvature="0" />
        <path
           id="path4118"
           d="m 216.0095,265.05601 q 1.02579,-0.79416 1.56627,-1.83099 0.5515,-1.03683 0.5515,-2.26116 0,-0.61769 -0.13236,-1.16919 -0.12133,-0.55151 -0.38605,-1.05889 -0.26472,-0.50738 -0.67284,-0.98167 -0.39708,-0.4743 -0.94858,-0.94859 l 0.49635,-0.6618 q 1.26846,0.93755 1.88614,2.18395 0.62872,1.23537 0.62872,2.61413 0,0.68386 -0.16546,1.34566 -0.15442,0.66181 -0.47429,1.27949 -0.30884,0.60666 -0.78313,1.14713 -0.46327,0.5515 -1.09198,1.00373 l -0.48532,-0.6618 0.011,0 z"
           inkscape:connector-curvature="0" />
        <path
           id="path4120"
           d="m 231.69486,259.15785 q 0.71631,0.78094 1.23873,1.19026 0.52242,0.40393 0.9856,0.60321 l 0,0.24236 q -0.53319,0.25851 -1.03407,0.66245 -0.50088,0.39855 -1.19564,1.1741 l -0.41471,0 q 0.50626,-1.08254 1.061,-1.66421 l -8.59031,0 0,-0.54396 8.59031,0 q -0.40932,-0.52242 -0.57089,-0.77555 -0.16158,-0.25313 -0.47934,-0.88866 l 0.40932,0 z"
           inkscape:connector-curvature="0" />
        <path
           id="path4122"
           d="m 241.6006,263.87579 q -0.1103,-0.2206 -0.27575,-0.48532 -0.15442,-0.26472 -0.34194,-0.54047 -0.18751,-0.28678 -0.39708,-0.56254 -0.19854,-0.27575 -0.39708,-0.51841 -0.19854,0.25369 -0.41914,0.52944 -0.2206,0.27576 -0.43018,0.56254 -0.19854,0.27575 -0.37502,0.54047 -0.17648,0.26472 -0.29781,0.47429 l -0.93756,0 q 0.364,-0.6618 0.88241,-1.35669 0.52944,-0.70593 1.03683,-1.33464 l -1.84203,-2.42662 1.0258,0 1.37876,1.78687 1.26846,-1.78687 0.97064,0 -1.6876,2.37147 q 0.49636,0.65077 0.99271,1.35669 0.50738,0.70593 0.86034,1.38979 l -1.01476,0 z"
           inkscape:connector-curvature="0" />
        <path
           id="path4124"
           d="m 244.19266,265.05601 q 1.0258,-0.79416 1.56627,-1.83099 0.5515,-1.03683 0.5515,-2.26116 0,-0.61769 -0.13236,-1.16919 -0.12133,-0.55151 -0.38605,-1.05889 -0.26472,-0.50738 -0.67283,-0.98167 -0.39709,-0.4743 -0.94859,-0.94859 l 0.49635,-0.6618 q 1.26846,0.93755 1.88614,2.18395 0.62872,1.23537 0.62872,2.61413 0,0.68386 -0.16545,1.34566 -0.15442,0.66181 -0.4743,1.27949 -0.30884,0.60666 -0.78313,1.14713 -0.46326,0.5515 -1.09198,1.00373 l -0.48532,-0.6618 0.011,0 z"
           inkscape:connector-curvature="0" />
        <path
           id="path4126"
           d="m 259.87802,259.15785 q 0.71631,0.78094 1.23873,1.19026 0.52242,0.40393 0.9856,0.60321 l 0,0.24236 q -0.53319,0.25851 -1.03407,0.66245 -0.50088,0.39855 -1.19564,1.1741 l -0.41471,0 q 0.50627,-1.08254 1.061,-1.66421 l -8.59031,0 0,-0.54396 8.59031,0 q -0.40932,-0.52242 -0.57089,-0.77555 -0.16157,-0.25313 -0.47933,-0.88866 l 0.40931,0 z"
           inkscape:connector-curvature="0" />
        <path
           id="path4128"
           d="m 268.405,263.22502 q 0.34193,0 0.60665,-0.0221 0.27575,-0.0221 0.45223,-0.0552 l 0,-1.52215 q -0.17648,-0.0551 -0.43017,-0.0882 -0.24266,-0.0331 -0.51841,-0.0331 -0.25369,0 -0.49635,0.0441 -0.24267,0.0331 -0.43018,0.13236 -0.18751,0.0993 -0.30884,0.26472 -0.12133,0.15442 -0.12133,0.39708 0,0.49636 0.3309,0.6949 0.34193,0.18751 0.9155,0.18751 z m -0.0882,-4.58851 q 0.57356,0 0.95961,0.14339 0.39709,0.14339 0.63975,0.39708 0.24266,0.2537 0.34193,0.61769 0.0993,0.36399 0.0993,0.79416 l 0,3.19872 q -0.31987,0.0551 -0.84931,0.13236 -0.51842,0.0772 -1.06992,0.0772 -0.41914,0 -0.81623,-0.0772 -0.39708,-0.0662 -0.70592,-0.24266 -0.30884,-0.18751 -0.49635,-0.50738 -0.18752,-0.31987 -0.18752,-0.81623 0,-0.4412 0.18752,-0.73901 0.19854,-0.30884 0.49635,-0.49635 0.30884,-0.18751 0.69489,-0.26473 0.39709,-0.0882 0.79417,-0.0882 0.54047,0 1.05888,0.12133 l 0,-0.25369 q 0,-0.23163 -0.0552,-0.4412 -0.0441,-0.2206 -0.18751,-0.39708 -0.13236,-0.17648 -0.37502,-0.27575 -0.23163,-0.1103 -0.60665,-0.1103 -0.4743,0 -0.82726,0.0662 -0.35296,0.0662 -0.54047,0.13236 l -0.1103,-0.75005 q 0.18751,-0.0882 0.61768,-0.15442 0.4412,-0.0662 0.93756,-0.0662 z"
           inkscape:connector-curvature="0" />
        <path
           id="path4130"
           d="m 282.54615,259.15785 q 0.71631,0.78094 1.23873,1.19026 0.52242,0.40393 0.9856,0.60321 l 0,0.24236 q -0.53319,0.25851 -1.03407,0.66245 -0.50088,0.39855 -1.19564,1.1741 l -0.41471,0 q 0.50627,-1.08254 1.061,-1.66421 l -8.59031,0 0,-0.54396 8.59031,0 q -0.40932,-0.52242 -0.57089,-0.77555 -0.16157,-0.25313 -0.47934,-0.88866 l 0.40932,0 z"
           inkscape:connector-curvature="0" />
        <path
           id="path4132"
           d="m 292.99237,263.7324 q -0.29781,0.0772 -0.79417,0.16545 -0.48532,0.0882 -1.14713,0.0882 -0.58459,0 -0.97064,-0.16545 -0.38605,-0.17648 -0.62872,-0.48532 -0.24266,-0.31987 -0.34193,-0.75004 -0.0993,-0.43018 -0.0993,-0.94859 l 0,-2.87885 0.90447,0 0,2.68031 q 0,0.94858 0.27575,1.34567 0.28678,0.39708 0.94859,0.39708 0.14339,0 0.28678,-0.011 0.15442,-0.011 0.28678,-0.0221 0.13236,-0.0221 0.23163,-0.0331 0.0993,-0.0221 0.13236,-0.0331 l 0,-4.32379 0.9155,0 0,4.97456 z"
           inkscape:connector-curvature="0" />
        <path
           id="path4134"
           d="m 305.21428,259.15785 q 0.71631,0.78094 1.23873,1.19026 0.52242,0.40393 0.9856,0.60321 l 0,0.24236 q -0.53319,0.25851 -1.03407,0.66245 -0.50088,0.39855 -1.19564,1.1741 l -0.41471,0 q 0.50626,-1.08254 1.061,-1.66421 l -8.59031,0 0,-0.54396 8.59031,0 q -0.40932,-0.52242 -0.57089,-0.77555 -0.16158,-0.25313 -0.47934,-0.88866 l 0.40932,0 z"
           inkscape:connector-curvature="0" />
        <path
           id="path4136"
           d="m 315.12001,263.87579 q -0.1103,-0.2206 -0.27575,-0.48532 -0.15442,-0.26472 -0.34193,-0.54047 -0.18751,-0.28678 -0.39708,-0.56254 -0.19854,-0.27575 -0.39708,-0.51841 -0.19855,0.25369 -0.41915,0.52944 -0.2206,0.27576 -0.43017,0.56254 -0.19854,0.27575 -0.37502,0.54047 -0.17648,0.26472 -0.29781,0.47429 l -0.93756,0 q 0.36399,-0.6618 0.88241,-1.35669 0.52944,-0.70593 1.03682,-1.33464 l -1.84202,-2.42662 1.0258,0 1.37876,1.78687 1.26845,-1.78687 0.97065,0 -1.6876,2.37147 q 0.49635,0.65077 0.99271,1.35669 0.50738,0.70593 0.86034,1.38979 l -1.01477,0 z"
           inkscape:connector-curvature="0" />
      </g>
    </g>
    <flowRoot
       xml:space="preserve"
       id="flowRoot6109"
       style="font-style:normal;font-weight:normal;font-size:40px;line-height:125%;font-family:Sans;letter-spacing:0px;word-spacing:0px;fill:#000000;fill-opacity:1;stroke:none;stroke-width:1px;stroke-linecap:butt;stroke-linejoin:miter;stroke-opacity:1"><flowRegion
         id="flowRegion6111"><rect
           id="rect6113"
           width="9.5852251"
           height="68.353653"
           x="331.86877"
           y="117.84101" /></flowRegion><flowPara
         id="flowPara6115" /></flowRoot>    <flowRoot
       xml:space="preserve"
       id="flowRoot6109-4"
       style="font-style:normal;font-weight:normal;font-size:40px;line-height:125%;font-family:Sans;letter-spacing:0px;word-spacing:0px;fill:#000000;fill-opacity:1;stroke:none;stroke-width:1px;stroke-linecap:butt;stroke-linejoin:miter;stroke-opacity:1"
       transform="translate(18.989368,-47.333611)"><flowRegion
         id="flowRegion6111-4"><rect
           id="rect6113-4"
           width="9.5852251"
           height="68.353653"
           x="331.86877"
           y="117.84101" /></flowRegion><flowPara
         id="flowPara6115-4" /></flowRoot>    <flowRoot
       xml:space="preserve"
       id="flowRoot6109-2"
       style="font-style:normal;font-weight:normal;font-size:40px;line-height:125%;font-family:Sans;letter-spacing:0px;word-spacing:0px;fill:#000000;fill-opacity:1;stroke:none;stroke-width:1px;stroke-linecap:butt;stroke-linejoin:miter;stroke-opacity:1"
       transform="translate(301.56196,0.24084267)"><flowRegion
         id="flowRegion6111-1"><rect
           id="rect6113-3"
           width="9.5852251"
           height="68.353653"
           x="331.86877"
           y="117.84101" /></flowRegion><flowPara
         id="flowPara6115-7" /></flowRoot>    <flowRoot
       xml:space="preserve"
       id="flowRoot6109-4-2"
       style="font-style:normal;font-weight:normal;font-size:40px;line-height:125%;font-family:Sans;letter-spacing:0px;word-spacing:0px;fill:#000000;fill-opacity:1;stroke:none;stroke-width:1px;stroke-linecap:butt;stroke-linejoin:miter;stroke-opacity:1"
       transform="translate(320.55133,-47.092768)"><flowRegion
         id="flowRegion6111-4-3"><rect
           id="rect6113-4-6"
           width="9.5852251"
           height="68.353653"
           x="331.86877"
           y="117.84101" /></flowRegion><flowPara
         id="flowPara6115-4-5" /></flowRoot>  </g>
</svg>
