<?xml version="1.0" encoding="UTF-8" standalone="no"?>
<svg
   xmlns:dc="http://purl.org/dc/elements/1.1/"
   xmlns:cc="http://creativecommons.org/ns#"
   xmlns:rdf="http://www.w3.org/1999/02/22-rdf-syntax-ns#"
   xmlns:svg="http://www.w3.org/2000/svg"
   xmlns="http://www.w3.org/2000/svg"
   xmlns:xlink="http://www.w3.org/1999/xlink"
   xmlns:sodipodi="http://sodipodi.sourceforge.net/DTD/sodipodi-0.dtd"
   xmlns:inkscape="http://www.inkscape.org/namespaces/inkscape"
   width="320"
   height="62.569828"
   viewBox="0 0 256 50.055859"
   version="1.1"
   id="svg3396"
   inkscape:version="0.91 r13725"
   sodipodi:docname="logo-dunkler-hintergrund.svg"
   inkscape:export-filename="/Users/tim/Desktop/curry-club/pngs/curry-club-ubuntu-rot-rot-abgeschnitten3.png"
   inkscape:export-xdpi="90"
   inkscape:export-ydpi="90">
  <metadata
     id="metadata3416">
    <rdf:RDF>
      <cc:Work
         rdf:about="">
        <dc:format>image/svg+xml</dc:format>
        <dc:type
           rdf:resource="http://purl.org/dc/dcmitype/StillImage" />
        <dc:title></dc:title>
      </cc:Work>
    </rdf:RDF>
  </metadata>
  <sodipodi:namedview
     pagecolor="#ffffff"
     bordercolor="#666666"
     borderopacity="1"
     objecttolerance="10"
     gridtolerance="10"
     guidetolerance="10"
     inkscape:pageopacity="0"
     inkscape:pageshadow="2"
     inkscape:window-width="1335"
     inkscape:window-height="841"
     id="namedview3414"
     showgrid="false"
     inkscape:zoom="1"
     inkscape:cx="355.63744"
     inkscape:cy="-144.13172"
     inkscape:window-x="143"
     inkscape:window-y="0"
     inkscape:window-maximized="0"
     inkscape:current-layer="surface0"
     showguides="false"
     units="px"
     fit-margin-top="0"
     fit-margin-left="0"
     fit-margin-right="0"
     fit-margin-bottom="0" />
  <defs
     id="defs3398">
    <linearGradient
       inkscape:collect="always"
       id="linearGradient5404">
      <stop
         style="stop-color:#612fac;stop-opacity:1"
         offset="0"
         id="stop5376" />
      <stop
         style="stop-color:#8f61d3;stop-opacity:1"
         offset="1"
         id="stop5378" />
    </linearGradient>
    <linearGradient
       inkscape:collect="always"
       xlink:href="#linearGradient5404"
       id="linearGradient6305"
       gradientUnits="userSpaceOnUse"
       gradientTransform="matrix(1.1718361,0,0,1.1718361,9.5257836,-64.546578)"
       x1="144.78511"
       y1="152.15529"
       x2="163.25426"
       y2="130.09357" />
  </defs>
  <g
     id="surface0"
     style="fill:#800000"
     transform="translate(-41.262584,-41.131861)">
    <flowRoot
       xml:space="preserve"
       id="flowRoot6109"
       style="font-style:normal;font-weight:normal;font-size:40px;line-height:125%;font-family:Sans;letter-spacing:0px;word-spacing:0px;fill:#000000;fill-opacity:1;stroke:none;stroke-width:1px;stroke-linecap:butt;stroke-linejoin:miter;stroke-opacity:1"><flowRegion
         id="flowRegion6111"><rect
           id="rect6113"
           width="9.5852251"
           height="68.353653"
           x="331.86877"
           y="117.84101" /></flowRegion><flowPara
         id="flowPara6115" /></flowRoot>    <g
       id="g3765">
      <g
         transform="matrix(1.0437321,0,0,1.0437321,-59.416985,-34.878636)"
         id="g6324">
        <g
           id="g6499">
          <path
             inkscape:connector-curvature="0"
             id="path3406-6-7"
             d="m 164.67967,83.256579 10.28079,15.42101 -10.28079,15.421001 7.71051,0 10.28077,-15.421001 -10.28077,-15.42101 -7.71051,0 z m 0,0"
             style="clip-rule:nonzero;fill:#472e6b;fill-opacity:1;fill-rule:nonzero;stroke:none" />
          <path
             style="clip-rule:nonzero;opacity:0.847;fill:url(#linearGradient6305);fill-opacity:1;fill-rule:nonzero;stroke:none"
             d="m 174.54996,83.086999 10.28079,15.42101 -10.28079,15.420991 7.7105,0 20.56122,-30.842001 -7.71051,0 -6.42517,9.63796 -6.42554,-9.63796 -7.7105,0 z m 0,0"
             id="path3408-1"
             inkscape:connector-curvature="0" />
          <path
             inkscape:connector-curvature="0"
             id="path3426-5"
             d="m 192.60093,102.32983 c -0.91788,1.37594 -1.66886,2.51839 -1.66886,2.53877 0,0.0203 3.81902,0.0371 8.48672,0.0371 l 8.48673,0 0,-2.53877 0,-2.538781 -6.81789,0 -6.81787,0 -1.66883,2.501731 z"
             style="fill:#ad2dcd;fill-opacity:1;stroke:none;stroke-width:0.60558933" />
          <path
             inkscape:connector-curvature="0"
             id="path3428-2"
             d="m 197.85927,94.434179 c -0.83779,1.26014 -1.58358,2.38543 -1.65733,2.50064 l -0.13406,0.20947 5.91881,0 5.91883,0 0,-2.50251 0,-2.50248 -4.26149,0.002 -4.26151,0.002 -1.52325,2.2912 z"
             style="fill:#ad2dcd;fill-opacity:1;stroke:none;stroke-width:0.60558933" />
        </g>
      </g>
      <g
         transform="matrix(1.0437321,0,0,1.0437321,-1.8029732,-3.9841658)"
         id="text3340-4"
         style="font-style:normal;font-variant:normal;font-weight:500;font-stretch:normal;font-size:41.50957108px;line-height:125%;font-family:Ubuntu;-inkscape-font-specification:'Ubuntu Medium';letter-spacing:-0.74997509px;word-spacing:0px;fill:#ffffff;fill-opacity:1;stroke:none;stroke-width:1px;stroke-linecap:butt;stroke-linejoin:miter;stroke-opacity:1">
        <path
           id="path3604"
           style="font-style:normal;font-variant:normal;font-weight:500;font-stretch:normal;font-family:Ubuntu;-inkscape-font-specification:'Ubuntu Medium';letter-spacing:-0.74997509px;fill:#ffffff"
           d="m 55.125319,76.321084 q -3.237747,0 -5.81134,-0.99623 -2.573593,-0.996229 -4.358505,-2.90567 -1.784911,-1.950949 -2.739632,-4.732091 -0.95472,-2.781141 -0.95472,-6.392474 0,-3.611332 1.079249,-6.392474 1.120759,-2.781141 3.030199,-4.690581 1.90944,-1.95095 4.483034,-2.94718 2.573593,-0.996229 5.520772,-0.996229 1.784912,0 3.237747,0.290567 1.452835,0.249057 2.532084,0.581134 1.079249,0.332076 1.784911,0.705662 0.705663,0.373586 0.99623,0.539625 l -1.535854,4.275486 q -0.99623,-0.622644 -2.86416,-1.162268 -1.826422,-0.581134 -3.984919,-0.581134 -1.867931,0 -3.486804,0.664153 -1.618873,0.622643 -2.822651,1.90944 -1.162268,1.286797 -1.826421,3.237747 -0.664153,1.950949 -0.664153,4.524543 0,2.283026 0.498115,4.192466 0.539624,1.909441 1.618873,3.320766 1.079249,1.369816 2.739632,2.158498 1.660382,0.747172 3.984918,0.747172 2.781142,0 4.524544,-0.539624 1.743402,-0.581134 2.698122,-1.079249 l 1.411325,4.275486 q -0.498115,0.332076 -1.369816,0.664153 -0.830191,0.332076 -1.992459,0.664153 -1.162268,0.290567 -2.615103,0.456605 -1.452835,0.207548 -3.113218,0.207548 z"
           inkscape:connector-curvature="0" />
        <path
           id="path3606"
           style="font-style:normal;font-variant:normal;font-weight:500;font-stretch:normal;font-family:Ubuntu;-inkscape-font-specification:'Ubuntu Medium';letter-spacing:-0.74997509px;fill:#ffffff"
           d="m 84.93028,75.034287 q -1.452835,0.373587 -3.777371,0.747173 -2.324536,0.415095 -5.105677,0.415095 -2.615103,0 -4.400014,-0.747172 -1.743402,-0.747172 -2.822651,-2.075478 -1.03774,-1.328307 -1.494345,-3.154728 -0.456605,-1.867931 -0.456605,-4.067938 l 0,-12.162304 5.022658,0 0,11.373622 q 0,3.486804 0.99623,4.981149 1.037739,1.494344 3.569823,1.494344 0.91321,0 1.90944,-0.08302 1.037739,-0.08302 1.535854,-0.207548 l 0,-17.558548 5.022658,0 0,21.045352 z"
           inkscape:connector-curvature="0" />
        <path
           id="path3608"
           style="font-style:normal;font-variant:normal;font-weight:500;font-stretch:normal;font-family:Ubuntu;-inkscape-font-specification:'Ubuntu Medium';letter-spacing:-0.74997509px;fill:#ffffff"
           d="m 100.55875,58.513478 q -0.622648,-0.207548 -1.743406,-0.415096 -1.079249,-0.249057 -2.532084,-0.249057 -0.830191,0 -1.784912,0.166038 -0.91321,0.166039 -1.286796,0.290567 l 0,17.392511 -5.022658,0 0,-20.671767 q 1.452835,-0.539624 3.611332,-0.99623 2.200008,-0.498114 4.85662,-0.498114 0.498115,0 1.162268,0.08302 0.664153,0.04151 1.328306,0.166038 0.664154,0.08302 1.2868,0.249057 0.62264,0.124529 0.99623,0.249058 l -0.8717,4.233976 z"
           inkscape:connector-curvature="0" />
        <path
           id="path3610"
           style="font-style:normal;font-variant:normal;font-weight:500;font-stretch:normal;font-family:Ubuntu;-inkscape-font-specification:'Ubuntu Medium';letter-spacing:-0.74997509px;fill:#ffffff"
           d="m 116.50989,58.513478 q -0.62264,-0.207548 -1.7434,-0.415096 -1.07925,-0.249057 -2.53208,-0.249057 -0.8302,0 -1.78492,0.166038 -0.91321,0.166039 -1.28679,0.290567 l 0,17.392511 -5.02266,0 0,-20.671767 q 1.45283,-0.539624 3.61133,-0.99623 2.20001,-0.498114 4.85662,-0.498114 0.49812,0 1.16227,0.08302 0.66415,0.04151 1.32831,0.166038 0.66415,0.08302 1.28679,0.249057 0.62265,0.124529 0.99623,0.249058 l -0.8717,4.233976 z"
           inkscape:connector-curvature="0" />
        <path
           id="path3612"
           style="font-style:normal;font-variant:normal;font-weight:500;font-stretch:normal;font-family:Ubuntu;-inkscape-font-specification:'Ubuntu Medium';letter-spacing:-0.74997509px;fill:#ffffff"
           d="m 172.92663,76.321084 q -3.23775,0 -5.81134,-0.99623 -2.5736,-0.996229 -4.35851,-2.90567 -1.78491,-1.950949 -2.73963,-4.732091 -0.95472,-2.781141 -0.95472,-6.392474 0,-3.611332 1.07925,-6.392474 1.12076,-2.781141 3.0302,-4.690581 1.90944,-1.95095 4.48303,-2.94718 2.57359,-0.996229 5.52077,-0.996229 1.78492,0 3.23775,0.290567 1.45284,0.249057 2.53208,0.581134 1.07925,0.332076 1.78492,0.705662 0.70566,0.373586 0.99623,0.539625 l -1.53586,4.275486 q -0.99623,-0.622644 -2.86416,-1.162268 -1.82642,-0.581134 -3.98492,-0.581134 -1.86793,0 -3.4868,0.664153 -1.61887,0.622643 -2.82265,1.90944 -1.16227,1.286797 -1.82642,3.237747 -0.66416,1.950949 -0.66416,4.524543 0,2.283026 0.49812,4.192466 0.53962,1.909441 1.61887,3.320766 1.07925,1.369816 2.73963,2.158498 1.66039,0.747172 3.98492,0.747172 2.78114,0 4.52455,-0.539624 1.7434,-0.581134 2.69812,-1.079249 l 1.41132,4.275486 q -0.49811,0.332076 -1.36981,0.664153 -0.83019,0.332076 -1.99246,0.664153 -1.16227,0.290567 -2.61511,0.456605 -1.45283,0.207548 -3.11321,0.207548 z"
           inkscape:connector-curvature="0" />
        <path
           id="path3614"
           style="font-style:normal;font-variant:normal;font-weight:500;font-stretch:normal;font-family:Ubuntu;-inkscape-font-specification:'Ubuntu Medium';letter-spacing:-0.74997509px;fill:#ffffff"
           d="m 192.91542,76.113536 q -2.24152,-0.04151 -3.73586,-0.498115 -1.45284,-0.456605 -2.32454,-1.286796 -0.8717,-0.871701 -1.24529,-2.116988 -0.33207,-1.286797 -0.33207,-2.90567 l 0,-24.988762 5.02266,-0.830192 0,24.864233 q 0,0.913211 0.12452,1.535855 0.16604,0.622643 0.53963,1.079248 0.37359,0.415096 0.99623,0.664154 0.66415,0.207547 1.66038,0.332076 l -0.70566,4.150957 z"
           inkscape:connector-curvature="0" />
        <path
           id="path3616"
           style="font-style:normal;font-variant:normal;font-weight:500;font-stretch:normal;font-family:Ubuntu;-inkscape-font-specification:'Ubuntu Medium';letter-spacing:-0.74997509px;fill:#ffffff"
           d="m 213.56964,75.034287 q -1.45284,0.373587 -3.77738,0.747173 -2.32453,0.415095 -5.10567,0.415095 -2.61511,0 -4.40002,-0.747172 -1.7434,-0.747172 -2.82265,-2.075478 -1.03774,-1.328307 -1.49434,-3.154728 -0.45661,-1.867931 -0.45661,-4.067938 l 0,-12.162304 5.02266,0 0,11.373622 q 0,3.486804 0.99623,4.981149 1.03774,1.494344 3.56982,1.494344 0.91321,0 1.90944,-0.08302 1.03774,-0.08302 1.53586,-0.207548 l 0,-17.558548 5.02266,0 0,21.045352 z"
           inkscape:connector-curvature="0" />
        <path
           id="path3618"
           style="font-style:normal;font-variant:normal;font-weight:500;font-stretch:normal;font-family:Ubuntu;-inkscape-font-specification:'Ubuntu Medium';letter-spacing:-0.74997509px;fill:#ffffff"
           d="m 231.81798,64.781423 q 0,-3.196237 -1.2868,-5.064167 -1.24528,-1.867931 -3.98492,-1.867931 -1.24528,0 -2.36604,0.373586 -1.07925,0.373586 -1.7434,0.830192 l 0,12.49438 q 0.53962,0.124529 1.36981,0.249058 0.8717,0.08302 2.07548,0.08302 2.78114,0 4.35851,-1.867931 1.57736,-1.90944 1.57736,-5.230206 z m 5.14719,0.08302 q 0,2.615102 -0.78868,4.732091 -0.74718,2.075478 -2.20001,3.569823 -1.41133,1.494344 -3.4453,2.283026 -2.03397,0.788682 -4.60756,0.788682 -2.49057,0 -4.7736,-0.373586 -2.24152,-0.373586 -3.73586,-0.830192 l 0,-30.717082 5.02266,-0.830192 0,11.249094 q 0.8717,-0.456605 2.11699,-0.830191 1.28679,-0.373586 2.82265,-0.373586 2.28302,0 4.06793,0.830191 1.82643,0.788682 3.0302,2.283026 1.20378,1.494345 1.82642,3.611333 0.66416,2.075479 0.66416,4.607563 z"
           inkscape:connector-curvature="0" />
      </g>
      <g
         transform="matrix(1.0437321,0,0,1.0437321,-1.8029732,-3.9841658)"
         id="text4418-3"
         style="font-style:normal;font-variant:normal;font-weight:normal;font-stretch:normal;font-size:21.91609192px;line-height:125%;font-family:'Ubuntu Condensed';-inkscape-font-specification:'Ubuntu Condensed, ';letter-spacing:0px;word-spacing:0px;fill:#ffffff;fill-opacity:1;stroke:none;stroke-width:1px;stroke-linecap:butt;stroke-linejoin:miter;stroke-opacity:1">
        <path
           id="path3621"
           style="font-style:normal;font-variant:normal;font-weight:normal;font-stretch:normal;font-family:'Ubuntu Condensed';-inkscape-font-specification:'Ubuntu Condensed, ';fill:#ffffff"
           d="m 250.77378,43.576331 q 0.52598,1.643707 1.03005,3.331246 0.52599,1.665623 1.00815,3.506575 0.50407,1.840952 0.98622,3.901064 0.50407,2.060113 1.00814,4.448967 l -1.97245,0 q -0.17533,-0.986224 -0.37257,-1.950532 -0.17533,-0.964308 -0.37258,-1.928616 l -4.7777,0 q -0.21916,0.964308 -0.39449,1.928616 -0.17533,0.964308 -0.35066,1.950532 l -1.9067,0 q 0.48215,-2.388854 0.98622,-4.448967 0.50407,-2.060112 0.98623,-3.901064 0.50407,-1.840952 1.00814,-3.506575 0.52598,-1.687539 1.05197,-3.331246 l 2.08203,0 z m -1.07389,2.235442 q -0.5479,1.819035 -1.05197,3.659987 -0.50407,1.840952 -0.96431,3.769568 l 4.01064,0 q -0.43832,-1.928616 -0.94239,-3.769568 -0.50407,-1.840952 -1.05197,-3.659987 z"
           inkscape:connector-curvature="0" />
        <path
           id="path3623"
           style="font-style:normal;font-variant:normal;font-weight:normal;font-stretch:normal;font-family:'Ubuntu Condensed';-inkscape-font-specification:'Ubuntu Condensed, ';fill:#ffffff"
           d="m 260.99133,59.092924 q -2.12586,0 -3.19975,-1.205385 -1.05197,-1.205385 -1.05197,-3.8134 l 0,-10.497808 1.97245,0 0,10.32248 q 0,1.731371 0.50407,2.608015 0.50407,0.854727 1.81903,0.854727 1.3588,0 1.84096,-0.876644 0.50407,-0.898559 0.50407,-2.586098 l 0,-10.32248 1.97244,0 0,10.497808 q 0,2.564183 -1.0958,3.791484 -1.0958,1.227301 -3.2655,1.227301 z"
           inkscape:connector-curvature="0" />
        <path
           id="path3625"
           style="font-style:normal;font-variant:normal;font-weight:normal;font-stretch:normal;font-family:'Ubuntu Condensed';-inkscape-font-specification:'Ubuntu Condensed, ';fill:#ffffff"
           d="m 267.67779,51.159299 q 0,-2.147777 0.39449,-3.659987 0.39449,-1.512211 1.11772,-2.454602 0.74515,-0.964309 1.7752,-1.380714 1.05198,-0.438322 2.34503,-0.438322 0.98622,0 1.79711,0.284909 0.8109,0.262993 1.31497,0.613651 l -0.61365,1.643707 q -0.50407,-0.350658 -1.0958,-0.569819 -0.59174,-0.241077 -1.3588,-0.241077 -1.9067,0 -2.73951,1.556043 -0.83282,1.534126 -0.83282,4.646211 0,1.665623 0.24108,2.849092 0.26299,1.183469 0.72323,1.928616 0.46024,0.745147 1.11772,1.095805 0.65749,0.350657 1.46838,0.350657 0.6794,0 1.16155,-0.153412 l 0,-5.939261 1.97245,0 0,7.144646 q -0.59173,0.284909 -1.46838,0.482154 -0.87664,0.197245 -1.84095,0.197245 -1.18347,0 -2.19161,-0.460238 -1.00814,-0.482154 -1.75328,-1.446462 -0.72324,-0.986225 -1.13964,-2.476519 -0.39449,-1.51221 -0.39449,-3.572323 z"
           inkscape:connector-curvature="0" />
        <path
           id="path3627"
           style="font-style:normal;font-variant:normal;font-weight:normal;font-stretch:normal;font-family:'Ubuntu Condensed';-inkscape-font-specification:'Ubuntu Condensed, ';fill:#ffffff"
           d="m 281.72844,57.405385 q 1.18347,0 1.81903,-0.657482 0.65748,-0.657483 0.65748,-1.775204 0,-0.591734 -0.19724,-1.051972 -0.19724,-0.460238 -0.52599,-0.832812 -0.30682,-0.372573 -0.72323,-0.679399 -0.4164,-0.306825 -0.85472,-0.61365 -0.50407,-0.350658 -1.05198,-0.745147 -0.5479,-0.39449 -1.00814,-0.920476 -0.43832,-0.525986 -0.72323,-1.227301 -0.28491,-0.701315 -0.28491,-1.643707 0,-0.920476 0.30683,-1.665623 0.32874,-0.745147 0.87664,-1.271134 0.56982,-0.525986 1.33688,-0.810895 0.78898,-0.284909 1.68754,-0.284909 0.87665,0 1.62179,0.219161 0.74515,0.219161 1.24922,0.525986 l -0.61365,1.556043 q -0.46024,-0.306826 -1.00814,-0.460238 -0.52599,-0.175329 -1.11772,-0.175329 -1.07389,0 -1.73137,0.591734 -0.63557,0.569819 -0.63557,1.687539 0,0.613651 0.19725,1.073889 0.21916,0.460238 0.5479,0.832811 0.35066,0.372574 0.78898,0.679399 0.46023,0.306826 0.96431,0.635567 0.50407,0.328741 1.03005,0.723231 0.52599,0.39449 0.94239,0.920476 0.43833,0.50407 0.70132,1.205385 0.28491,0.679399 0.28491,1.621791 0,0.854727 -0.263,1.62179 -0.26299,0.767064 -0.83281,1.358798 -0.5479,0.569819 -1.40263,0.920476 -0.83281,0.328741 -1.97245,0.328741 -1.05197,0 -1.84095,-0.241077 -0.78898,-0.241077 -1.40263,-0.635566 l 0.61365,-1.577959 q 0.56982,0.350658 1.16156,0.569819 0.61365,0.197244 1.40263,0.197244 z"
           inkscape:connector-curvature="0" />
      </g>
      <g
         transform="matrix(1.0437321,0,0,1.0437321,-1.8029732,-3.9841658)"
         id="text4426-1"
         style="font-style:normal;font-variant:normal;font-weight:normal;font-stretch:normal;font-size:21.91609192px;line-height:125%;font-family:'Ubuntu Condensed';-inkscape-font-specification:'Ubuntu Condensed, ';letter-spacing:0px;word-spacing:0px;fill:#ffffff;fill-opacity:1;stroke:none;stroke-width:1px;stroke-linecap:butt;stroke-linejoin:miter;stroke-opacity:1">
        <path
           id="path3630"
           d="m 246.93088,67.088278 1.3588,0 q 2.71759,0 2.71759,-2.454602 0,-0.767064 -0.24108,-1.249218 -0.21916,-0.50407 -0.59173,-0.767063 -0.37257,-0.284909 -0.87664,-0.394489 -0.48216,-0.109581 -1.03006,-0.109581 -0.32874,0 -0.6794,0.02192 -0.32874,0.02192 -0.65748,0.06575 l 0,4.887289 z m 0,1.577959 0,5.479023 q 0.4164,0.06575 0.81089,0.10958 0.41641,0.04383 0.8109,0.04383 0.61365,0 1.16155,-0.131496 0.5479,-0.131497 0.94239,-0.438322 0.41641,-0.306825 0.63557,-0.832812 0.24108,-0.547902 0.24108,-1.336881 0,-1.358798 -0.74515,-2.125861 -0.72323,-0.767063 -2.27927,-0.767063 l -1.57796,0 z m -1.97245,-7.824045 q 0.76706,-0.175329 1.55604,-0.262993 0.8109,-0.109581 1.59988,-0.109581 0.98622,0 1.86286,0.197245 0.89856,0.175329 1.57796,0.635567 0.6794,0.438322 1.07389,1.183469 0.41641,0.723231 0.41641,1.819035 0,1.358798 -0.56982,2.235442 -0.56982,0.854727 -1.46838,1.271133 1.11772,0.438322 1.84095,1.336882 0.72323,0.898559 0.72323,2.476518 0,1.183469 -0.39449,1.994364 -0.37257,0.810896 -1.07388,1.336882 -0.70132,0.50407 -1.68754,0.745147 -0.96431,0.219161 -2.12586,0.219161 -0.76707,0 -1.59988,-0.08766 -0.83281,-0.08767 -1.73137,-0.262993 l 0,-14.727614 z"
           inkscape:connector-curvature="0" />
        <path
           id="path3632"
           d="m 260.64817,76.139624 q -2.12586,0 -3.19975,-1.205385 -1.05197,-1.205385 -1.05197,-3.8134 l 0,-10.497808 1.97245,0 0,10.322479 q 0,1.731371 0.50407,2.608015 0.50407,0.854728 1.81904,0.854728 1.35879,0 1.84095,-0.876644 0.50407,-0.89856 0.50407,-2.586099 l 0,-10.322479 1.97245,0 0,10.497808 q 0,2.564183 -1.09581,3.791484 -1.0958,1.227301 -3.2655,1.227301 z"
           inkscape:connector-curvature="0" />
        <path
           id="path3634"
           d="m 267.9702,60.842192 q 1.53413,-0.372574 2.95867,-0.372574 1.13964,0 2.06011,0.262993 0.92048,0.262993 1.57796,0.832812 0.65749,0.569818 1.00814,1.468378 0.37258,0.89856 0.37258,2.169693 0,1.577959 -0.61365,2.564183 -0.59174,0.964308 -1.62179,1.468378 0.26299,0.438322 0.65748,1.205385 0.4164,0.745147 0.83281,1.665623 0.43832,0.89856 0.83281,1.862868 0.41641,0.964308 0.70132,1.840952 l -1.97245,0 q -0.24108,-0.657483 -0.61365,-1.490295 -0.35066,-0.832811 -0.74515,-1.643707 -0.39449,-0.832811 -0.78898,-1.577958 -0.39449,-0.767063 -0.70131,-1.29305 -0.35066,0.04383 -0.72324,0.06575 -0.37257,0.02192 -0.74514,0.02192 l -0.5479,0 0,5.917345 -1.92862,0 0,-14.968691 z m 1.92862,7.429555 0.83281,0 q 1.51221,0 2.3231,-0.679399 0.8109,-0.701315 0.8109,-2.388854 0,-0.854728 -0.21916,-1.424546 -0.19725,-0.591734 -0.59174,-0.920476 -0.37257,-0.350657 -0.92047,-0.50407 -0.52599,-0.153413 -1.18347,-0.153413 -0.56982,0 -1.05197,0.06575 l 0,6.005009 z"
           inkscape:connector-curvature="0" />
        <path
           id="path3636"
           d="m 277.46328,68.205999 q 0,-2.147777 0.39449,-3.659988 0.39449,-1.51221 1.11772,-2.454602 0.74515,-0.964308 1.77521,-1.380714 1.05197,-0.438322 2.34502,-0.438322 0.98622,0 1.79712,0.28491 0.81089,0.262993 1.31496,0.61365 l -0.61365,1.643707 q -0.50407,-0.350657 -1.0958,-0.569818 -0.59174,-0.241077 -1.3588,-0.241077 -1.9067,0 -2.73951,1.556042 -0.83281,1.534127 -0.83281,4.646212 0,1.665623 0.24107,2.849092 0.263,1.183469 0.72323,1.928616 0.46024,0.745147 1.11773,1.095804 0.65748,0.350658 1.46837,0.350658 0.6794,0 1.16156,-0.153413 l 0,-5.939261 1.97244,0 0,7.144646 q -0.59173,0.284909 -1.46837,0.482154 -0.87665,0.197245 -1.84096,0.197245 -1.18346,0 -2.1916,-0.460238 -1.00814,-0.482154 -1.75329,-1.446462 -0.72323,-0.986224 -1.13964,-2.476518 -0.39449,-1.512211 -0.39449,-3.572323 z"
           inkscape:connector-curvature="0" />
      </g>
      <g
         transform="matrix(1.0437321,0,0,1.0437321,-1.8029732,-3.9841658)"
         id="text5425-0"
         style="font-style:normal;font-variant:normal;font-weight:normal;font-stretch:normal;font-size:11.0300684px;line-height:125%;font-family:'Ubuntu Mono';-inkscape-font-specification:'Ubuntu Mono';letter-spacing:0px;word-spacing:0px;fill:#8d4598;fill-opacity:1;stroke:none;stroke-width:1px;stroke-linecap:butt;stroke-linejoin:miter;stroke-opacity:1">
        <path
           id="path3639"
           d="m 141.42314,88.636269 q 0,0.330902 -0.2206,0.584594 -0.2206,0.253691 -0.5846,0.253691 -0.37502,0 -0.59562,-0.253691 -0.2206,-0.253692 -0.2206,-0.584594 0,-0.341932 0.2206,-0.595623 0.2206,-0.253692 0.59562,-0.253692 0.364,0 0.5846,0.253692 0.2206,0.253691 0.2206,0.595623 z m 0,-3.562712 q 0,0.330902 -0.2206,0.584594 -0.2206,0.253691 -0.5846,0.253691 -0.37502,0 -0.59562,-0.253691 -0.2206,-0.253692 -0.2206,-0.584594 0,-0.341932 0.2206,-0.595624 0.2206,-0.253691 0.59562,-0.253691 0.364,0 0.5846,0.253691 0.2206,0.253692 0.2206,0.595624 z"
           inkscape:connector-curvature="0" />
        <path
           id="path3641"
           d="m 146.93817,88.636269 q 0,0.330902 -0.2206,0.584594 -0.2206,0.253691 -0.58459,0.253691 -0.37503,0 -0.59563,-0.253691 -0.2206,-0.253692 -0.2206,-0.584594 0,-0.341932 0.2206,-0.595623 0.2206,-0.253692 0.59563,-0.253692 0.36399,0 0.58459,0.253692 0.2206,0.253691 0.2206,0.595623 z m 0,-3.562712 q 0,0.330902 -0.2206,0.584594 -0.2206,0.253691 -0.58459,0.253691 -0.37503,0 -0.59563,-0.253691 -0.2206,-0.253692 -0.2206,-0.584594 0,-0.341932 0.2206,-0.595624 0.2206,-0.253691 0.59563,-0.253691 0.36399,0 0.58459,0.253691 0.2206,0.253692 0.2206,0.595624 z"
           inkscape:connector-curvature="0" />
        <path
           id="path3643"
           d="m 158.63005,82.27192 q -1.0258,0.794165 -1.56627,1.830991 -0.54048,1.036827 -0.54048,2.261164 0,0.617684 0.12133,1.169187 0.13236,0.551504 0.38606,1.058887 0.26472,0.507383 0.6618,0.981676 0.40811,0.474293 0.95962,0.948586 l -0.49636,0.661804 q -1.26846,-0.937556 -1.89717,-2.172923 -0.61768,-1.246398 -0.61768,-2.625157 0,-1.367728 0.62871,-2.614126 0.62871,-1.246398 1.88614,-2.161893 l 0.48533,0.661804 -0.011,0 z"
           inkscape:connector-curvature="0" />
        <path
           id="path3645"
           d="m 164.14508,82.27192 q -1.0258,0.794165 -1.56627,1.830991 -0.54047,1.036827 -0.54047,2.261164 0,0.617684 0.12133,1.169187 0.13236,0.551504 0.38605,1.058887 0.26472,0.507383 0.6618,0.981676 0.40812,0.474293 0.95962,0.948586 l -0.49635,0.661804 q -1.26846,-0.937556 -1.89718,-2.172923 -0.61768,-1.246398 -0.61768,-2.625157 0,-1.367728 0.62871,-2.614126 0.62872,-1.246398 1.88615,-2.161893 l 0.48532,0.661804 -0.011,0 z"
           inkscape:connector-curvature="0" />
        <path
           id="path3647"
           d="m 168.23723,88.69142 q 0.34194,0 0.60666,-0.02206 0.27575,-0.02206 0.45223,-0.05515 l 0,-1.522149 q -0.17648,-0.05515 -0.43017,-0.08824 -0.24266,-0.03309 -0.51842,-0.03309 -0.25369,0 -0.49635,0.04412 -0.24266,0.03309 -0.43017,0.132361 -0.18751,0.09927 -0.30884,0.264722 -0.12133,0.154421 -0.12133,0.397082 0,0.496353 0.3309,0.694894 0.34193,0.187512 0.91549,0.187512 z m -0.0882,-4.588509 q 0.57357,0 0.95962,0.143391 0.39708,0.143391 0.63974,0.397082 0.24266,0.253692 0.34194,0.617684 0.0993,0.363993 0.0993,0.794165 l 0,3.19872 q -0.31988,0.05515 -0.84932,0.132361 -0.51841,0.07721 -1.06992,0.07721 -0.41914,0 -0.81622,-0.07721 -0.39708,-0.06618 -0.70593,-0.242662 -0.30884,-0.187511 -0.49635,-0.507383 -0.18751,-0.319872 -0.18751,-0.816225 0,-0.441203 0.18751,-0.739014 0.19854,-0.308842 0.49635,-0.496353 0.30885,-0.187512 0.6949,-0.264722 0.39708,-0.08824 0.79416,-0.08824 0.54048,0 1.05889,0.121331 l 0,-0.253692 q 0,-0.231631 -0.0551,-0.441202 -0.0441,-0.220602 -0.18751,-0.397083 -0.13236,-0.176481 -0.37502,-0.275751 -0.23163,-0.110301 -0.60666,-0.110301 -0.47429,0 -0.82725,0.06618 -0.35296,0.06618 -0.54048,0.132361 l -0.1103,-0.750045 q 0.18751,-0.08824 0.61769,-0.15442 0.4412,-0.06618 0.93755,-0.06618 z"
           inkscape:connector-curvature="0" />
        <path
           id="path3649"
           d="m 172.58308,90.213569 q 0.19854,-0.04412 0.38605,-0.08824 0.19855,-0.04412 0.364,-0.13236 0.16545,-0.07721 0.29781,-0.209572 0.13236,-0.12133 0.20957,-0.341932 -0.35296,-0.03309 -0.51841,-0.264721 -0.15442,-0.242662 -0.15442,-0.474293 0,-0.441203 0.24266,-0.661804 0.25369,-0.231632 0.57356,-0.231632 0.40811,0 0.61768,0.297812 0.20958,0.286782 0.20958,0.705924 0,0.319872 -0.13236,0.661804 -0.12134,0.352963 -0.38606,0.650774 -0.25369,0.308842 -0.63974,0.518414 -0.38605,0.220601 -0.9155,0.286781 l -0.15442,-0.716954 z"
           inkscape:connector-curvature="0" />
        <path
           id="path3651"
           d="m 184.35789,89.198803 q -0.29781,0.07721 -0.79416,0.165451 -0.48532,0.08824 -1.14713,0.08824 -0.58459,0 -0.97064,-0.165451 -0.38606,-0.176481 -0.62872,-0.485323 -0.24266,-0.319872 -0.34193,-0.750044 -0.0993,-0.430173 -0.0993,-0.948586 l 0,-2.878848 0.90447,0 0,2.680306 q 0,0.948586 0.27575,1.345669 0.28678,0.397082 0.94858,0.397082 0.14339,0 0.28679,-0.01103 0.15442,-0.01103 0.28678,-0.02206 0.13236,-0.02206 0.23163,-0.03309 0.0993,-0.02206 0.13236,-0.03309 l 0,-4.323787 0.91549,0 0,4.974561 z"
           inkscape:connector-curvature="0" />
        <path
           id="path3653"
           d="m 186.40949,90.522411 q 1.0258,-0.794165 1.56627,-1.830991 0.5515,-1.036827 0.5515,-2.261164 0,-0.617684 -0.13236,-1.169188 -0.12133,-0.551503 -0.38605,-1.058886 -0.26472,-0.507383 -0.67283,-0.981676 -0.39709,-0.474293 -0.94859,-0.948586 l 0.49635,-0.661804 q 1.26846,0.937555 1.88615,2.183953 0.62871,1.235368 0.62871,2.614126 0,0.683865 -0.16545,1.345669 -0.15442,0.661804 -0.47429,1.279488 -0.30885,0.606653 -0.78314,1.147127 -0.46326,0.551503 -1.09198,1.003736 l -0.48532,-0.661804 0.011,0 z"
           inkscape:connector-curvature="0" />
        <path
           id="path3655"
           d="m 202.09486,84.624254 q 0.7163,0.780938 1.23872,1.190257 0.52242,0.403933 0.9856,0.603206 l 0,0.24236 q -0.53319,0.258518 -1.03407,0.662451 -0.50088,0.398547 -1.19564,1.174099 l -0.4147,0 q 0.50626,-1.082541 1.06099,-1.664205 l -8.59031,0 0,-0.543963 8.59031,0 q -0.40932,-0.52242 -0.57089,-0.775552 -0.16157,-0.253131 -0.47933,-0.888653 l 0.40932,0 z"
           inkscape:connector-curvature="0" />
        <path
           id="path3657"
           d="m 212.00059,89.342194 q -0.1103,-0.220602 -0.27575,-0.485323 -0.15442,-0.264722 -0.34193,-0.540474 -0.18751,-0.286782 -0.39708,-0.562533 -0.19855,-0.275752 -0.39709,-0.518413 -0.19854,0.253691 -0.41914,0.529443 -0.2206,0.275752 -0.43017,0.562533 -0.19854,0.275752 -0.37502,0.540474 -0.17649,0.264721 -0.29782,0.474293 l -0.93755,0 q 0.36399,-0.661805 0.8824,-1.356699 0.52945,-0.705924 1.03683,-1.334638 l -1.84202,-2.426615 1.02579,0 1.37876,1.786871 1.26846,-1.786871 0.97065,0 -1.6876,2.371465 q 0.49635,0.650774 0.9927,1.356698 0.50739,0.705924 0.86035,1.389789 l -1.01477,0 z"
           inkscape:connector-curvature="0" />
        <path
           id="path3659"
           d="m 214.59265,90.522411 q 1.0258,-0.794165 1.56627,-1.830991 0.55151,-1.036827 0.55151,-2.261164 0,-0.617684 -0.13236,-1.169188 -0.12133,-0.551503 -0.38606,-1.058886 -0.26472,-0.507383 -0.67283,-0.981676 -0.39708,-0.474293 -0.94859,-0.948586 l 0.49636,-0.661804 q 1.26845,0.937555 1.88614,2.183953 0.62871,1.235368 0.62871,2.614126 0,0.683865 -0.16545,1.345669 -0.15442,0.661804 -0.47429,1.279488 -0.30884,0.606653 -0.78314,1.147127 -0.46326,0.551503 -1.09197,1.003736 l -0.48533,-0.661804 0.011,0 z"
           inkscape:connector-curvature="0" />
        <path
           id="path3661"
           d="m 230.27802,84.624254 q 0.71631,0.780938 1.23873,1.190257 0.52242,0.403933 0.98559,0.603206 l 0,0.24236 q -0.53319,0.258518 -1.03407,0.662451 -0.50087,0.398547 -1.19564,1.174099 l -0.4147,0 q 0.50626,-1.082541 1.061,-1.664205 l -8.59032,0 0,-0.543963 8.59032,0 q -0.40932,-0.52242 -0.5709,-0.775552 -0.16157,-0.253131 -0.47933,-0.888653 l 0.40932,0 z"
           inkscape:connector-curvature="0" />
        <path
           id="path3663"
           d="m 238.80499,88.69142 q 0.34193,0 0.60666,-0.02206 0.27575,-0.02206 0.45223,-0.05515 l 0,-1.522149 q -0.17648,-0.05515 -0.43017,-0.08824 -0.24267,-0.03309 -0.51842,-0.03309 -0.25369,0 -0.49635,0.04412 -0.24266,0.03309 -0.43017,0.132361 -0.18751,0.09927 -0.30884,0.264722 -0.12134,0.154421 -0.12134,0.397082 0,0.496353 0.33091,0.694894 0.34193,0.187512 0.91549,0.187512 z m -0.0882,-4.588509 q 0.57357,0 0.95962,0.143391 0.39708,0.143391 0.63974,0.397082 0.24266,0.253692 0.34193,0.617684 0.0993,0.363993 0.0993,0.794165 l 0,3.19872 q -0.31987,0.05515 -0.84931,0.132361 -0.51841,0.07721 -1.06992,0.07721 -0.41914,0 -0.81622,-0.07721 -0.39709,-0.06618 -0.70593,-0.242662 -0.30884,-0.187511 -0.49635,-0.507383 -0.18751,-0.319872 -0.18751,-0.816225 0,-0.441203 0.18751,-0.739014 0.19854,-0.308842 0.49635,-0.496353 0.30884,-0.187512 0.6949,-0.264722 0.39708,-0.08824 0.79416,-0.08824 0.54048,0 1.05889,0.121331 l 0,-0.253692 q 0,-0.231631 -0.0551,-0.441202 -0.0441,-0.220602 -0.18751,-0.397083 -0.13236,-0.176481 -0.37502,-0.275751 -0.23164,-0.110301 -0.60666,-0.110301 -0.47429,0 -0.82725,0.06618 -0.35297,0.06618 -0.54048,0.132361 l -0.1103,-0.750045 q 0.18751,-0.08824 0.61769,-0.15442 0.4412,-0.06618 0.93755,-0.06618 z"
           inkscape:connector-curvature="0" />
        <path
           id="path3665"
           d="m 252.94615,84.624254 q 0.71631,0.780938 1.23873,1.190257 0.52242,0.403933 0.98559,0.603206 l 0,0.24236 q -0.53319,0.258518 -1.03407,0.662451 -0.50087,0.398547 -1.19564,1.174099 l -0.4147,0 q 0.50626,-1.082541 1.06099,-1.664205 l -8.59031,0 0,-0.543963 8.59031,0 q -0.40931,-0.52242 -0.57089,-0.775552 -0.16157,-0.253131 -0.47933,-0.888653 l 0.40932,0 z"
           inkscape:connector-curvature="0" />
        <path
           id="path3667"
           d="m 263.39236,89.198803 q -0.29781,0.07721 -0.79416,0.165451 -0.48533,0.08824 -1.14713,0.08824 -0.58459,0 -0.97065,-0.165451 -0.38605,-0.176481 -0.62871,-0.485323 -0.24266,-0.319872 -0.34193,-0.750044 -0.0993,-0.430173 -0.0993,-0.948586 l 0,-2.878848 0.90446,0 0,2.680306 q 0,0.948586 0.27575,1.345669 0.28679,0.397082 0.94859,0.397082 0.14339,0 0.28678,-0.01103 0.15442,-0.01103 0.28678,-0.02206 0.13236,-0.02206 0.23163,-0.03309 0.0993,-0.02206 0.13237,-0.03309 l 0,-4.323787 0.91549,0 0,4.974561 z"
           inkscape:connector-curvature="0" />
        <path
           id="path3669"
           d="m 275.61428,84.624254 q 0.7163,0.780938 1.23872,1.190257 0.52242,0.403933 0.9856,0.603206 l 0,0.24236 q -0.53319,0.258518 -1.03407,0.662451 -0.50087,0.398547 -1.19564,1.174099 l -0.4147,0 q 0.50626,-1.082541 1.06099,-1.664205 l -8.59031,0 0,-0.543963 8.59031,0 q -0.40932,-0.52242 -0.57089,-0.775552 -0.16157,-0.253131 -0.47933,-0.888653 l 0.40932,0 z"
           inkscape:connector-curvature="0" />
        <path
           id="path3671"
           d="m 285.52001,89.342194 q -0.1103,-0.220602 -0.27575,-0.485323 -0.15442,-0.264722 -0.34194,-0.540474 -0.18751,-0.286782 -0.39708,-0.562533 -0.19854,-0.275752 -0.39708,-0.518413 -0.19854,0.253691 -0.41914,0.529443 -0.2206,0.275752 -0.43018,0.562533 -0.19854,0.275752 -0.37502,0.540474 -0.17648,0.264721 -0.29781,0.474293 l -0.93756,0 q 0.364,-0.661805 0.88241,-1.356699 0.52944,-0.705924 1.03683,-1.334638 l -1.84202,-2.426615 1.02579,0 1.37876,1.786871 1.26846,-1.786871 0.97064,0 -1.6876,2.371465 q 0.49636,0.650774 0.99271,1.356698 0.50738,0.705924 0.86035,1.389789 l -1.01477,0 z"
           inkscape:connector-curvature="0" />
      </g>
    </g>
    <flowRoot
       xml:space="preserve"
       id="flowRoot6109-4"
       style="font-style:normal;font-weight:normal;font-size:40px;line-height:125%;font-family:Sans;letter-spacing:0px;word-spacing:0px;fill:#000000;fill-opacity:1;stroke:none;stroke-width:1px;stroke-linecap:butt;stroke-linejoin:miter;stroke-opacity:1"
       transform="translate(18.989368,-47.333611)"><flowRegion
         id="flowRegion6111-4"><rect
           id="rect6113-4"
           width="9.5852251"
           height="68.353653"
           x="331.86877"
           y="117.84101" /></flowRegion><flowPara
         id="flowPara6115-4" /></flowRoot>    <flowRoot
       xml:space="preserve"
       id="flowRoot6109-2"
       style="font-style:normal;font-weight:normal;font-size:40px;line-height:125%;font-family:Sans;letter-spacing:0px;word-spacing:0px;fill:#000000;fill-opacity:1;stroke:none;stroke-width:1px;stroke-linecap:butt;stroke-linejoin:miter;stroke-opacity:1"
       transform="translate(301.56196,0.24084267)"><flowRegion
         id="flowRegion6111-1"><rect
           id="rect6113-3"
           width="9.5852251"
           height="68.353653"
           x="331.86877"
           y="117.84101" /></flowRegion><flowPara
         id="flowPara6115-7" /></flowRoot>    <flowRoot
       xml:space="preserve"
       id="flowRoot6109-4-2"
       style="font-style:normal;font-weight:normal;font-size:40px;line-height:125%;font-family:Sans;letter-spacing:0px;word-spacing:0px;fill:#000000;fill-opacity:1;stroke:none;stroke-width:1px;stroke-linecap:butt;stroke-linejoin:miter;stroke-opacity:1"
       transform="translate(320.55133,-47.092768)"><flowRegion
         id="flowRegion6111-4-3"><rect
           id="rect6113-4-6"
           width="9.5852251"
           height="68.353653"
           x="331.86877"
           y="117.84101" /></flowRegion><flowPara
         id="flowPara6115-4-5" /></flowRoot>  </g>
</svg>
