<?xml version="1.0" encoding="UTF-8" standalone="no"?>
<!-- Created with Inkscape (http://www.inkscape.org/) -->

<svg
   xmlns:dc="http://purl.org/dc/elements/1.1/"
   xmlns:cc="http://creativecommons.org/ns#"
   xmlns:rdf="http://www.w3.org/1999/02/22-rdf-syntax-ns#"
   xmlns:svg="http://www.w3.org/2000/svg"
   xmlns="http://www.w3.org/2000/svg"
   xmlns:sodipodi="http://sodipodi.sourceforge.net/DTD/sodipodi-0.dtd"
   xmlns:inkscape="http://www.inkscape.org/namespaces/inkscape"
   version="1.0"
   width="230"
   height="300"
   id="svg8246"
   inkscape:version="0.91 r13725"
   sodipodi:docname="zirbelnuss.svg">
  <metadata
     id="metadata4316">
    <rdf:RDF>
      <cc:Work
         rdf:about="">
        <dc:format>image/svg+xml</dc:format>
        <dc:type
           rdf:resource="http://purl.org/dc/dcmitype/StillImage" />
        <dc:title></dc:title>
      </cc:Work>
    </rdf:RDF>
  </metadata>
  <sodipodi:namedview
     pagecolor="#ffffff"
     bordercolor="#666666"
     borderopacity="1"
     objecttolerance="10"
     gridtolerance="10"
     guidetolerance="10"
     inkscape:pageopacity="0"
     inkscape:pageshadow="2"
     inkscape:window-width="1436"
     inkscape:window-height="861"
     id="namedview4314"
     showgrid="false"
     inkscape:zoom="2.1633333"
     inkscape:cx="55.763913"
     inkscape:cy="137.42264"
     inkscape:window-x="0"
     inkscape:window-y="0"
     inkscape:window-maximized="0"
     inkscape:current-layer="svg8246" />
  <defs
     id="defs3" />
  <path
     style="font-size:9px;font-family:fnt1;letter-spacing:0;word-spacing:0;fill:#211024;fill-opacity:1;fill-rule:nonzero;stroke:none;stroke-width:0.25299999;stroke-linecap:butt;stroke-linejoin:miter;stroke-miterlimit:4;stroke-dasharray:none"
     d="m 93.982036,106.98602 c -3.598921,2.11332 -10.545884,6.64376 -15.437238,16.26744 -5.249394,10.1222 -9.610648,27.43737 -4.702438,42.74009 2.90028,9.04243 7.272666,14.54402 13.929473,17.77879 5.525763,2.63868 11.006335,3.75856 21.005917,1.51014 l 2.4822,8.21856 c -5.57179,1.40356 -11.16747,2.43026 -16.732726,3.25627 l -8.25314,14.15396 6.402703,3.6998 c -0.134871,1.19389 0.02952,2.48375 0.419919,3.70094 1.171279,3.65179 5.041488,5.67065 8.658484,4.51053 1.0781,-0.3458 2.98478,-1.33995 3.78708,-3.32323 0.21521,-0.64448 0.32589,-1.25527 0.29405,-2.01212 4.99884,5.30084 9.96856,14.63704 15.43626,28.9931 l 0.38672,1.02664 31.97931,-10.25708 -0.26584,-1.06542 c -3.91994,-14.85248 -5.29037,-25.34312 -4.3072,-32.56264 0.39697,0.63975 0.84289,1.07201 1.3928,1.47107 1.80619,1.14664 3.93469,0.84654 5.03025,0.49515 3.59955,-1.15452 5.59092,-5.05343 4.41964,-8.70522 -0.3904,-1.21718 -1.02425,-2.35647 -1.81104,-3.25474 l 3.03765,-6.72771 -14.94419,-6.71363 c -4.99,2.5595 -10.15826,4.98524 -15.50695,7.08433 l -2.74257,-8.13506 c 9.42442,-3.98165 13.22991,-8.07995 16.19014,-13.44044 3.53333,-6.50316 3.90874,-13.52757 1.00846,-22.57001 -4.90821,-15.30271 -18.54571,-26.84494 -28.70334,-32.02547 -9.57652,-4.98324 -17.845138,-4.63342 -22.019191,-4.25362 l -0.208298,0.0668 -0.226895,0.0728 z m 1.007733,2.36171 c 1.954783,-0.24343 4.912579,-0.23223 8.419321,0.17731 l -6.132282,6.95317 -9.049285,-2.08382 c 2.614346,-2.37283 5.013097,-4.10209 6.762246,-5.04666 z m -8.510893,6.94897 9.153436,2.05041 -7.248256,8.07824 -7.695423,-1.75094 c 0.05226,-0.0168 0.06648,-0.21208 0.136084,-0.2344 1.740589,-3.24322 3.700672,-5.98244 5.654159,-8.14331 z M 105.938,110.05536 c 2.86337,0.6159 6.03357,1.70963 9.33584,3.33539 0.0696,-0.0223 0.19417,0.12848 0.26378,0.10615 l -5.25996,5.90627 -10.592846,-2.35587 6.253186,-6.99194 z m -7.880353,8.85734 10.576103,2.36123 -7.17418,8.24522 -10.65017,-2.52822 7.248247,-8.07823 z m -18.326694,7.79593 7.027802,1.58151 -7.192778,8.25119 -3.0403,-0.74986 c 0.846539,-3.34013 1.96173,-6.38259 3.205276,-9.08284 z m 37.768877,-12.11404 c 2.58214,1.47321 5.24148,3.30502 7.89031,5.52404 l -2.05556,2.38431 -10.63158,-2.53419 4.79683,-5.37416 z m -28.334936,14.26524 10.59471,2.35526 -7.192188,8.25305 -10.632167,-2.53604 7.229645,-8.07227 z m 21.893606,-7.02218 10.5761,2.36123 -7.17358,8.24708 -10.64891,-2.53067 7.24639,-8.07764 z m -35.070503,16.0441 1.878004,0.35552 -2.603647,2.9457 c 0.225409,-1.03127 0.44808,-2.25322 0.725643,-3.30122 z m 51.038573,-16.37018 c 0.85269,0.68549 1.72661,1.55571 2.52715,2.25793 l -3.84987,-0.8758 1.32272,-1.38213 z m -46.73523,17.29128 10.65018,2.52822 -7.248254,8.07823 -9.170168,-2.04504 c 0.03774,-0.7792 0.07495,-1.55716 0.203233,-2.17375 l 5.565009,-6.38766 z m 21.8936,-7.02218 10.63158,2.53419 -7.22966,8.07226 -10.594695,-2.35525 7.192775,-8.2512 z m 21.875,-7.01621 8.26077,1.95316 c 0.44564,0.43251 0.94636,1.03793 1.41293,1.65539 l -6.27177,6.9979 -10.5761,-2.36122 7.17417,-8.24523 z m -30.711682,17.13817 10.594702,2.35525 -7.248252,8.07824 -10.576099,-2.36123 7.229649,-8.07226 z m 21.893602,-7.02218 10.5761,2.36122 -7.22965,8.07227 -10.59284,-2.35586 7.24639,-8.07763 z m -40.871188,14.64331 7.678689,1.7563 -7.142239,8.04424 c -0.534452,-3.28075 -0.666358,-6.49849 -0.53645,-9.80054 z m 60.741158,-19.48219 c 2.02631,2.61046 3.79186,5.30423 5.28267,8.27823 l -10.50729,-2.3833 5.22462,-5.89493 z m -50.637725,21.80221 10.594704,2.35527 -7.192179,8.25305 -10.632175,-2.53605 7.22965,-8.07227 z m 21.893595,-7.02217 10.5761,2.36123 -7.17357,8.24709 -10.650776,-2.53009 7.248246,-8.07823 z m 21.87501,-7.01622 10.57796,2.36064 -7.17544,8.24768 -10.63217,-2.53605 7.22965,-8.07227 z m -52.850459,24.04823 0.03348,-0.0107 0.08741,-0.028 0.08741,-0.028 10.576101,2.36123 -6.986015,7.99412 c -1.086672,-1.95285 -2.077181,-4.32108 -2.913794,-6.92945 -0.334666,-1.04342 -0.654358,-2.28229 -0.88459,-3.35909 z m 22.083296,-7.08302 10.594703,2.35526 -7.19278,8.2512 -10.631572,-2.5342 7.229649,-8.07226 z m 21.893603,-7.02218 10.5761,2.36123 -7.17418,8.24523 -10.64831,-2.52883 7.24639,-8.07763 z m 21.87686,-7.01681 0.0856,-0.0274 0.0874,-0.028 0.0353,-0.0113 c 0.43903,1.00983 0.9163,2.19816 1.25097,3.24157 0.83661,2.60838 1.40897,5.11073 1.64355,7.33688 l -10.33433,-2.43878 7.23151,-8.07286 z m -52.644613,23.98016 10.650775,2.53008 -7.248253,8.07823 -10.5761,-2.36123 7.173578,-8.24708 z m 21.893593,-7.02218 10.63218,2.53605 -7.22966,8.07226 -10.59469,-2.35526 7.19217,-8.25305 z m 21.87501,-7.01622 10.63403,2.53546 -7.23151,8.07286 -10.5761,-2.36123 7.17358,-8.24709 z m -30.71169,17.13817 10.59471,2.35526 -7.24826,8.07823 -10.576094,-2.36122 7.229644,-8.07227 z m 21.8936,-7.02218 10.57611,2.36123 -7.22966,8.07226 -10.59284,-2.35585 7.24639,-8.07764 z m -42.488812,14.20428 9.29632,2.19534 -3.02958,3.46589 c -2.477729,-1.50669 -4.470129,-3.16898 -6.26674,-5.66123 z M 144.50097,154.6465 c -0.0118,3.07229 -0.6824,5.58871 -1.82154,8.25547 l -4.48216,-1.05656 6.3037,-7.19891 z m -51.716213,23.10806 10.594703,2.35526 -3.27167,3.73429 c -4.389953,0.0656 -7.64242,-0.80798 -10.763666,-2.10826 l 3.440633,-3.98129 z m 21.893593,-7.02218 10.57611,2.36123 -5.66916,6.42107 -1.89514,0.60785 -1.91373,0.61381 -8.34632,-1.92572 7.24824,-8.07824 z m 21.87501,-7.01621 5.11632,1.23672 c -1.78254,2.87313 -3.90461,5.47058 -7.53122,7.97619 l -4.81475,-1.14064 7.22965,-8.07227 z m -30.76716,16.96521 5.64046,1.25935 c -3.15111,0.81892 -5.79889,1.47534 -8.20936,1.67316 l 2.5689,-2.93251 z m 21.8936,-7.02218 3.79534,0.89124 c -2.05849,1.23556 -4.60959,2.24663 -7.64917,3.41333 l 3.85383,-4.30457 z m -16.77602,11.13417 c 2.29904,-0.54561 4.78484,-1.34394 7.56722,-2.23636 2.78227,-0.89239 5.2689,-1.68892 7.45627,-2.58229 l 5.26331,15.5721 -7.75538,2.48747 -7.75538,2.48747 -4.77604,-15.72839 z m -15.063776,13.84424 c 5.395006,-0.57962 10.726736,-1.71343 16.072496,-3.04449 l 1.64129,5.41774 -10.08571,3.2349 c -5.495049,1.76249 -9.045173,4.6281 -10.309086,8.10209 l -3.89035,-2.20426 c 1.560145,-2.61003 3.896,-6.81217 6.57136,-11.50598 z M 146.21648,182.4798 c 4.90639,2.26203 9.24877,4.32219 12.03597,5.53785 l -1.86387,4.04987 c -3.0661,-2.08518 -7.62009,-2.35147 -13.11514,-0.58898 l -9.84394,3.15736 -0.22504,0.0722 -1.8161,-5.36166 c 5.12255,-2.02655 10.04669,-4.37401 14.82812,-6.86661 z m -44.61774,24.6669 c 5.87597,0.80028 13.07714,6.92984 20.25878,14.79085 l -1.3073,16.91244 c -5.64447,-13.53214 -10.72744,-21.49176 -16.26478,-25.66092 l -1.5825,1.4675 c 0.94031,1.61626 1.24666,3.05121 0.84732,4.13816 -0.48623,1.11494 -1.75149,1.71246 -2.46436,1.9411 -2.46929,0.79201 -5.138358,-0.65315 -5.919233,-3.08774 -1.338598,-4.17346 0.968898,-7.98203 6.432073,-10.50139 z m 3.84235,-1.2324 18.21147,-5.64836 -1.55327,18.71633 c -6.62461,-7.08079 -12.02355,-11.29423 -16.6582,-13.06797 z m 37.19606,-11.93031 c -2.73833,4.13856 -4.67807,10.70581 -5.93096,20.31325 l -12.14977,-14.32121 18.08073,-5.99204 z m 3.84421,-1.23299 c 5.90935,-1.12828 10.01835,0.62226 11.35695,4.79571 0.78087,2.4346 -0.54968,5.16259 -3.01898,5.9546 -0.73033,0.23425 -2.08964,0.47853 -3.13366,-0.14559 -0.95705,-0.6519 -1.56099,-1.9914 -1.7363,-3.85303 l -2.13896,-0.27387 c -2.06188,6.60654 -1.58636,16.04397 1.69323,30.33462 l -10.90045,-12.99691 c 1.26963,-10.57169 3.58123,-19.75239 7.87817,-23.81553 z m -20.98281,11.71635 c 1.16272,1.35314 5.74407,6.78873 10.86171,12.81857 -0.51495,5.1515 -0.91449,10.84012 -1.15701,17.43856 -4.03521,-5.22639 -7.68768,-9.61537 -11.10281,-13.50633 0.67303,-7.88715 1.2219,-14.96821 1.39811,-16.7508 z m -1.63862,19.70364 c 3.91654,4.49736 7.84244,9.56679 11.48428,14.34389 l 1.40018,1.85228 -13.80717,4.42853 c -0.20208,-0.51051 -0.40443,-1.01997 -0.58908,-1.53606 0.34811,-4.71445 0.94612,-12.00302 1.51179,-19.08864 z m 14.43208,-4.62896 c 4.56412,5.44028 9.28981,11.02132 12.33257,14.64818 0.13252,0.53281 0.26496,1.0647 0.39753,1.5975 l -13.80718,4.42853 0.0784,-2.3265 c 0.16638,-5.99856 0.41138,-12.40576 0.99873,-18.34771 z"
     id="path2556"
     inkscape:connector-curvature="0"
     inkscape:export-xdpi="255.5775"
     inkscape:export-ydpi="255.5775" />
</svg>
